<ttFont>
<head>
    <!-- Most of this table will be recalculated by the compiler -->
    <tableVersion value="1.0"/>
    <fontRevision value="2.0"/>
    <checkSumAdjustment value="0xba3ae02e"/>
    <magicNumber value="0x5f0f3cf5"/>
    <flags value="00001000 00000011"/>
    <unitsPerEm value="1000"/>
    <created value="Fri Dec 15 08:48:50 2017"/>
    <modified value="Mon Aug 24 02:23:55 2020"/>
    <xMin value="-111"/>
    <yMin value="-299"/>
    <xMax value="1234"/>
    <yMax value="960"/>
    <macStyle value="00000000 00000000"/>
    <lowestRecPPEM value="6"/>
    <fontDirectionHint value="2"/>
    <indexToLocFormat value="0"/>
    <glyphDataFormat value="0"/>
  </head>
    <TTGlyph name=".notdef" xMin="-63" yMin="-290" xMax="911" yMax="960">
      <contour>
        <pt x="392" y="960" on="1"/>
        <pt x="911" y="960" on="1"/>
        <pt x="456" y="-290" on="1"/>
        <pt x="-63" y="-290" on="1"/>
      </contour>
      <contour>
        <pt x="375" y="-228" on="1"/>
        <pt x="389" y="233" on="1"/>
        <pt x="71" y="-228" on="1"/>
      </contour>
      <contour>
        <pt x="393" y="341" on="1"/>
        <pt x="407" y="810" on="1"/>
        <pt x="64" y="-136" on="1"/>
      </contour>
      <contour>
        <pt x="785" y="807" on="1"/>
        <pt x="455" y="329" on="1"/>
        <pt x="441" y="-141" on="1"/>
      </contour>
      <contour>
        <pt x="777" y="897" on="1"/>
        <pt x="473" y="897" on="1"/>
        <pt x="459" y="437" on="1"/>
      </contour>
    </TTGlyph>
    <TTGlyph name="d" xMin="96" yMin="-22" xMax="528" yMax="641">
      <contour>
        <pt x="362" y="-19" on="1"/>
        <pt x="349" y="-22" on="0"/>
        <pt x="332" y="-9" on="0"/>
        <pt x="328" y="3" on="1"/>
        <pt x="320" y="26" on="0"/>
        <pt x="313" y="81" on="0"/>
        <pt x="315" y="102" on="1"/>
        <pt x="317" y="123" on="1"/>
        <pt x="278" y="92" on="1"/>
        <pt x="244" y="62" on="0"/>
        <pt x="181" y="36" on="0"/>
        <pt x="157" y="36" on="1"/>
        <pt x="146" y="38" on="0"/>
        <pt x="124" y="50" on="0"/>
        <pt x="107" y="68" on="0"/>
        <pt x="102" y="78" on="1"/>
        <pt x="96" y="92" on="0"/>
        <pt x="101" y="140" on="0"/>
        <pt x="120" y="197" on="0"/>
        <pt x="149" y="252" on="0"/>
        <pt x="168" y="273" on="1"/>
        <pt x="201" y="323" on="0"/>
        <pt x="277" y="345" on="0"/>
        <pt x="314" y="323" on="1"/>
        <pt x="340" y="312" on="0"/>
        <pt x="353" y="314" on="0"/>
        <pt x="358" y="336" on="1"/>
        <pt x="362" y="352" on="0"/>
        <pt x="370" y="385" on="0"/>
        <pt x="379" y="413" on="1"/>
        <pt x="404" y="489" on="0"/>
        <pt x="441" y="575" on="0"/>
        <pt x="456" y="607" on="1"/>
        <pt x="467" y="630" on="0"/>
        <pt x="482" y="641" on="0"/>
        <pt x="490" y="640" on="1"/>
        <pt x="501" y="640" on="0"/>
        <pt x="519" y="624" on="0"/>
        <pt x="524" y="610" on="1"/>
        <pt x="528" y="601" on="0"/>
        <pt x="527" y="588" on="0"/>
        <pt x="521" y="577" on="1"/>
        <pt x="508" y="553" on="0"/>
        <pt x="473" y="474" on="0"/>
        <pt x="438" y="380" on="0"/>
        <pt x="408" y="288" on="0"/>
        <pt x="398" y="253" on="1"/>
        <pt x="392" y="231" on="0"/>
        <pt x="383" y="163" on="0"/>
        <pt x="377" y="92" on="0"/>
        <pt x="376" y="37" on="0"/>
        <pt x="378" y="29" on="1"/>
        <pt x="384" y="9" on="0"/>
        <pt x="383" y="-11" on="0"/>
        <pt x="373" y="-18" on="0"/>
      </contour>
      <contour>
        <pt x="193" y="92" on="1"/>
        <pt x="207" y="95" on="0"/>
        <pt x="234" y="111" on="0"/>
        <pt x="249" y="122" on="1"/>
        <pt x="279" y="145" on="0"/>
        <pt x="323" y="183" on="0"/>
        <pt x="330" y="222" on="1"/>
        <pt x="332" y="241" on="0"/>
        <pt x="321" y="264" on="0"/>
        <pt x="309" y="274" on="1"/>
        <pt x="297" y="282" on="0"/>
        <pt x="256" y="279" on="0"/>
        <pt x="234" y="259" on="1"/>
        <pt x="210" y="237" on="0"/>
        <pt x="165" y="163" on="0"/>
        <pt x="154" y="109" on="1"/>
        <pt x="152" y="99" on="0"/>
        <pt x="168" y="87" on="0"/>
      </contour>
    </TTGlyph>
    <TTGlyph name="e" xMin="104" yMin="11" xMax="385" yMax="385">
      <contour>
        <pt x="276" y="35" on="1"/>
        <pt x="255" y="17" on="0"/>
        <pt x="200" y="11" on="0"/>
        <pt x="148" y="34" on="0"/>
        <pt x="131" y="58" on="1"/>
        <pt x="114" y="80" on="0"/>
        <pt x="104" y="137" on="0"/>
        <pt x="108" y="183" on="1"/>
        <pt x="111" y="222" on="0"/>
        <pt x="155" y="301" on="0"/>
        <pt x="218" y="363" on="0"/>
        <pt x="249" y="375" on="1"/>
        <pt x="264" y="385" on="0"/>
        <pt x="285" y="384" on="0"/>
        <pt x="307" y="382" on="1"/>
        <pt x="330" y="379" on="0"/>
        <pt x="353" y="367" on="0"/>
        <pt x="360" y="357" on="1"/>
        <pt x="375" y="342" on="0"/>
        <pt x="385" y="313" on="0"/>
        <pt x="385" y="299" on="1"/>
        <pt x="381" y="277" on="0"/>
        <pt x="330" y="214" on="0"/>
        <pt x="289" y="194" on="1"/>
        <pt x="267" y="187" on="0"/>
        <pt x="215" y="189" on="0"/>
        <pt x="198" y="201" on="1"/>
        <pt x="179" y="209" on="0"/>
        <pt x="167" y="188" on="0"/>
        <pt x="162" y="148" on="1"/>
        <pt x="158" y="110" on="0"/>
        <pt x="178" y="75" on="0"/>
        <pt x="195" y="72" on="1"/>
        <pt x="215" y="68" on="0"/>
        <pt x="238" y="65" on="0"/>
        <pt x="255" y="75" on="1"/>
        <pt x="271" y="85" on="0"/>
        <pt x="279" y="88" on="0"/>
        <pt x="284" y="93" on="0"/>
        <pt x="294" y="103" on="1"/>
        <pt x="301" y="110" on="0"/>
        <pt x="309" y="117" on="0"/>
        <pt x="314" y="117" on="1"/>
        <pt x="319" y="117" on="0"/>
        <pt x="327" y="108" on="0"/>
        <pt x="331" y="106" on="1"/>
        <pt x="341" y="106" on="0"/>
        <pt x="330" y="82" on="0"/>
        <pt x="298" y="49" on="0"/>
      </contour>
      <contour>
        <pt x="275" y="247" on="1"/>
        <pt x="286" y="252" on="0"/>
        <pt x="310" y="271" on="0"/>
        <pt x="327" y="294" on="0"/>
        <pt x="327" y="302" on="1"/>
        <pt x="327" y="316" on="0"/>
        <pt x="301" y="335" on="0"/>
        <pt x="275" y="328" on="1"/>
        <pt x="264" y="325" on="0"/>
        <pt x="236" y="302" on="0"/>
        <pt x="211" y="274" on="0"/>
        <pt x="196" y="252" on="0"/>
        <pt x="198" y="250" on="1"/>
        <pt x="201" y="245" on="0"/>
        <pt x="229" y="240" on="0"/>
        <pt x="264" y="242" on="0"/>
      </contour>
    </TTGlyph>
    <TTGlyph name="f" xMin="77" yMin="-110" xMax="480" yMax="665">
      <contour>
        <pt x="123" y="-106" on="1"/>
        <pt x="117" y="-110" on="0"/>
        <pt x="102" y="-98" on="0"/>
        <pt x="88" y="-82" on="1"/>
        <pt x="81" y="-74" on="0"/>
        <pt x="77" y="-56" on="0"/>
        <pt x="80" y="-31" on="1"/>
        <pt x="84" y="-20" on="0"/>
        <pt x="85" y="0" on="0"/>
        <pt x="85" y="4" on="1"/>
        <pt x="85" y="10" on="0"/>
        <pt x="92" y="54" on="0"/>
        <pt x="100" y="103" on="0"/>
        <pt x="103" y="116" on="1"/>
        <pt x="103" y="117" on="0"/>
        <pt x="105" y="125" on="0"/>
        <pt x="106" y="128" on="1"/>
        <pt x="108" y="137" on="0"/>
        <pt x="115" y="167" on="0"/>
        <pt x="118" y="189" on="1"/>
        <pt x="126" y="214" on="0"/>
        <pt x="137" y="263" on="0"/>
        <pt x="137" y="272" on="1"/>
        <pt x="137" y="290" on="0"/>
        <pt x="151" y="298" on="1"/>
        <pt x="152" y="303" on="0"/>
        <pt x="162" y="324" on="0"/>
        <pt x="166" y="331" on="1"/>
        <pt x="186" y="388" on="0"/>
        <pt x="212" y="455" on="0"/>
        <pt x="226" y="480" on="1"/>
        <pt x="232" y="497" on="0"/>
        <pt x="247" y="533" on="0"/>
        <pt x="255" y="543" on="1"/>
        <pt x="260" y="556" on="0"/>
        <pt x="296" y="597" on="0"/>
        <pt x="336" y="636" on="0"/>
        <pt x="348" y="646" on="1"/>
        <pt x="370" y="657" on="0"/>
        <pt x="396" y="665" on="0"/>
        <pt x="417" y="665" on="1"/>
        <pt x="436" y="665" on="0"/>
        <pt x="449" y="656" on="0"/>
        <pt x="462" y="644" on="1"/>
        <pt x="476" y="629" on="0"/>
        <pt x="480" y="619" on="0"/>
        <pt x="480" y="605" on="1"/>
        <pt x="478" y="592" on="0"/>
        <pt x="461" y="551" on="0"/>
        <pt x="442" y="518" on="0"/>
        <pt x="436" y="517" on="1"/>
        <pt x="424" y="513" on="0"/>
        <pt x="413" y="526" on="0"/>
        <pt x="413" y="541" on="1"/>
        <pt x="413" y="548" on="0"/>
        <pt x="406" y="561" on="0"/>
        <pt x="406" y="561" on="1"/>
        <pt x="406" y="564" on="0"/>
        <pt x="409" y="579" on="0"/>
        <pt x="413" y="586" on="1"/>
        <pt x="418" y="596" on="0"/>
        <pt x="413" y="606" on="0"/>
        <pt x="402" y="603" on="1"/>
        <pt x="399" y="601" on="0"/>
        <pt x="373" y="581" on="0"/>
        <pt x="344" y="556" on="0"/>
        <pt x="322" y="534" on="0"/>
        <pt x="322" y="531" on="1"/>
        <pt x="322" y="531" on="0"/>
        <pt x="314" y="514" on="0"/>
        <pt x="303" y="501" on="1"/>
        <pt x="296" y="491" on="0"/>
        <pt x="285" y="472" on="0"/>
        <pt x="285" y="470" on="1"/>
        <pt x="285" y="466" on="0"/>
        <pt x="284" y="457" on="0"/>
        <pt x="279" y="457" on="1"/>
        <pt x="279" y="457" on="0"/>
        <pt x="273" y="439" on="0"/>
        <pt x="265" y="425" on="1"/>
        <pt x="261" y="415" on="0"/>
        <pt x="249" y="394" on="0"/>
        <pt x="245" y="390" on="1"/>
        <pt x="246" y="390" on="1"/>
        <pt x="246" y="390" on="0"/>
        <pt x="237" y="365" on="0"/>
        <pt x="227" y="338" on="0"/>
        <pt x="227" y="336" on="1"/>
        <pt x="227" y="332" on="0"/>
        <pt x="256" y="332" on="0"/>
        <pt x="296" y="339" on="0"/>
        <pt x="312" y="343" on="1"/>
        <pt x="326" y="347" on="0"/>
        <pt x="336" y="347" on="0"/>
        <pt x="351" y="343" on="1"/>
        <pt x="359" y="338" on="0"/>
        <pt x="370" y="319" on="0"/>
        <pt x="375" y="302" on="0"/>
        <pt x="372" y="298" on="1"/>
        <pt x="371" y="294" on="0"/>
        <pt x="329" y="280" on="0"/>
        <pt x="308" y="276" on="1"/>
        <pt x="290" y="272" on="0"/>
        <pt x="238" y="262" on="0"/>
        <pt x="199" y="254" on="0"/>
        <pt x="199" y="251" on="1"/>
        <pt x="195" y="251" on="0"/>
        <pt x="189" y="242" on="0"/>
        <pt x="189" y="239" on="1"/>
        <pt x="189" y="225" on="0"/>
        <pt x="185" y="218" on="1"/>
        <pt x="183" y="212" on="0"/>
        <pt x="173" y="176" on="0"/>
        <pt x="162" y="132" on="0"/>
        <pt x="155" y="96" on="0"/>
        <pt x="155" y="90" on="1"/>
        <pt x="149" y="83" on="0"/>
        <pt x="147" y="62" on="0"/>
        <pt x="147" y="54" on="1"/>
        <pt x="143" y="46" on="0"/>
        <pt x="141" y="33" on="0"/>
        <pt x="141" y="29" on="1"/>
        <pt x="141" y="28" on="0"/>
        <pt x="141" y="22" on="0"/>
        <pt x="140" y="19" on="1"/>
        <pt x="139" y="9" on="0"/>
        <pt x="136" y="-24" on="0"/>
        <pt x="136" y="-40" on="1"/>
        <pt x="133" y="-69" on="1"/>
        <pt x="132" y="-82" on="0"/>
        <pt x="128" y="-101" on="0"/>
      </contour>
    </TTGlyph>
    <TTGlyph name="glyph00011" xMin="83" yMin="9" xMax="532" yMax="629">
      <contour>
        <pt x="356" y="10" on="1"/>
        <pt x="352" y="10" on="0"/>
        <pt x="337" y="13" on="0"/>
        <pt x="332" y="20" on="1"/>
        <pt x="317" y="38" on="0"/>
        <pt x="309" y="62" on="0"/>
        <pt x="312" y="85" on="1"/>
        <pt x="314" y="100" on="0"/>
        <pt x="315" y="123" on="0"/>
        <pt x="316" y="131" on="1"/>
        <pt x="312" y="135" on="0"/>
        <pt x="291" y="116" on="0"/>
        <pt x="273" y="102" on="1"/>
        <pt x="239" y="63" on="0"/>
        <pt x="186" y="22" on="0"/>
        <pt x="144" y="9" on="0"/>
        <pt x="125" y="11" on="1"/>
        <pt x="108" y="13" on="0"/>
        <pt x="88" y="38" on="0"/>
        <pt x="83" y="78" on="0"/>
        <pt x="85" y="101" on="1"/>
        <pt x="89" y="134" on="0"/>
        <pt x="110" y="194" on="0"/>
        <pt x="134" y="231" on="1"/>
        <pt x="145" y="251" on="0"/>
        <pt x="182" y="290" on="0"/>
        <pt x="227" y="321" on="0"/>
        <pt x="248" y="328" on="1"/>
        <pt x="271" y="337" on="0"/>
        <pt x="319" y="340" on="0"/>
        <pt x="338" y="334" on="1"/>
        <pt x="350" y="328" on="0"/>
        <pt x="365" y="328" on="0"/>
        <pt x="369" y="338" on="1"/>
        <pt x="374" y="346" on="0"/>
        <pt x="384" y="379" on="0"/>
        <pt x="391" y="391" on="1"/>
        <pt x="413" y="456" on="1"/>
        <pt x="424" y="483" on="0"/>
        <pt x="450" y="543" on="0"/>
        <pt x="468" y="586" on="1"/>
        <pt x="485" y="618" on="0"/>
        <pt x="507" y="629" on="0"/>
        <pt x="521" y="615" on="1"/>
        <pt x="532" y="602" on="0"/>
        <pt x="526" y="569" on="0"/>
        <pt x="511" y="533" on="1"/>
        <pt x="504" y="522" on="0"/>
        <pt x="494" y="503" on="0"/>
        <pt x="485" y="483" on="1"/>
        <pt x="472" y="452" on="0"/>
        <pt x="450" y="403" on="0"/>
        <pt x="438" y="372" on="1"/>
        <pt x="434" y="356" on="0"/>
        <pt x="421" y="314" on="0"/>
        <pt x="417" y="297" on="1"/>
        <pt x="414" y="281" on="0"/>
        <pt x="407" y="254" on="0"/>
        <pt x="403" y="254" on="1"/>
        <pt x="395" y="245" on="0"/>
        <pt x="381" y="200" on="0"/>
        <pt x="372" y="152" on="0"/>
        <pt x="369" y="136" on="1"/>
        <pt x="367" y="124" on="0"/>
        <pt x="365" y="86" on="0"/>
        <pt x="365" y="51" on="0"/>
        <pt x="365" y="44" on="1"/>
        <pt x="365" y="22" on="0"/>
        <pt x="363" y="10" on="0"/>
      </contour>
      <contour>
        <pt x="143" y="73" on="1"/>
        <pt x="164" y="73" on="0"/>
        <pt x="211" y="109" on="0"/>
        <pt x="235" y="131" on="1"/>
        <pt x="250" y="145" on="0"/>
        <pt x="285" y="191" on="0"/>
        <pt x="318" y="237" on="0"/>
        <pt x="338" y="272" on="0"/>
        <pt x="338" y="276" on="1"/>
        <pt x="338" y="281" on="0"/>
        <pt x="320" y="285" on="0"/>
        <pt x="297" y="286" on="0"/>
        <pt x="290" y="284" on="1"/>
        <pt x="268" y="279" on="0"/>
        <pt x="225" y="249" on="0"/>
        <pt x="200" y="219" on="1"/>
        <pt x="174" y="187" on="0"/>
        <pt x="141" y="119" on="0"/>
        <pt x="133" y="73" on="0"/>
      </contour>
    </TTGlyph>
    <TTGlyph name="glyph00012" xMin="96" yMin="-3" xMax="376" yMax="391">
      <contour>
        <pt x="196" y="-3" on="1"/>
        <pt x="152" y="-3" on="0"/>
        <pt x="96" y="64" on="0"/>
        <pt x="97" y="114" on="1"/>
        <pt x="99" y="150" on="0"/>
        <pt x="124" y="233" on="0"/>
        <pt x="166" y="310" on="0"/>
        <pt x="216" y="368" on="0"/>
        <pt x="243" y="380" on="1"/>
        <pt x="253" y="385" on="0"/>
        <pt x="276" y="391" on="0"/>
        <pt x="288" y="391" on="1"/>
        <pt x="299" y="391" on="0"/>
        <pt x="323" y="384" on="0"/>
        <pt x="331" y="380" on="1"/>
        <pt x="348" y="373" on="0"/>
        <pt x="366" y="353" on="0"/>
        <pt x="373" y="332" on="1"/>
        <pt x="376" y="313" on="0"/>
        <pt x="376" y="297" on="0"/>
        <pt x="371" y="281" on="1"/>
        <pt x="359" y="245" on="0"/>
        <pt x="321" y="193" on="0"/>
        <pt x="289" y="175" on="1"/>
        <pt x="281" y="170" on="0"/>
        <pt x="260" y="165" on="0"/>
        <pt x="249" y="165" on="1"/>
        <pt x="229" y="165" on="0"/>
        <pt x="192" y="180" on="0"/>
        <pt x="181" y="195" on="1"/>
        <pt x="174" y="203" on="1"/>
        <pt x="171" y="195" on="1"/>
        <pt x="161" y="168" on="0"/>
        <pt x="150" y="122" on="0"/>
        <pt x="150" y="103" on="1"/>
        <pt x="150" y="91" on="0"/>
        <pt x="155" y="69" on="0"/>
        <pt x="160" y="61" on="1"/>
        <pt x="164" y="55" on="0"/>
        <pt x="183" y="50" on="0"/>
        <pt x="194" y="50" on="1"/>
        <pt x="201" y="50" on="0"/>
        <pt x="216" y="51" on="0"/>
        <pt x="223" y="54" on="1"/>
        <pt x="240" y="60" on="0"/>
        <pt x="261" y="74" on="0"/>
        <pt x="272" y="82" on="1"/>
        <pt x="276" y="84" on="1"/>
        <pt x="275" y="84" on="1"/>
        <pt x="287" y="90" on="0"/>
        <pt x="306" y="102" on="0"/>
        <pt x="306" y="102" on="1"/>
        <pt x="310" y="102" on="0"/>
        <pt x="314" y="107" on="1"/>
        <pt x="322" y="111" on="0"/>
        <pt x="347" y="97" on="0"/>
        <pt x="347" y="86" on="1"/>
        <pt x="346" y="81" on="0"/>
        <pt x="330" y="60" on="0"/>
        <pt x="311" y="42" on="0"/>
        <pt x="305" y="41" on="1"/>
        <pt x="304" y="40" on="0"/>
        <pt x="292" y="35" on="0"/>
        <pt x="290" y="33" on="1"/>
        <pt x="291" y="33" on="1"/>
        <pt x="282" y="21" on="0"/>
        <pt x="273" y="21" on="1"/>
        <pt x="265" y="21" on="1"/>
        <pt x="261" y="14" on="0"/>
        <pt x="217" y="-3" on="0"/>
      </contour>
      <contour>
        <pt x="241" y="217" on="1"/>
        <pt x="259" y="217" on="0"/>
        <pt x="286" y="238" on="0"/>
        <pt x="296" y="251" on="1"/>
        <pt x="316" y="278" on="0"/>
        <pt x="323" y="329" on="0"/>
        <pt x="313" y="339" on="1"/>
        <pt x="307" y="342" on="0"/>
        <pt x="298" y="343" on="0"/>
        <pt x="285" y="339" on="1"/>
        <pt x="276" y="337" on="0"/>
        <pt x="244" y="311" on="0"/>
        <pt x="213" y="279" on="0"/>
        <pt x="205" y="268" on="1"/>
        <pt x="192" y="247" on="1"/>
        <pt x="200" y="250" on="0"/>
        <pt x="215" y="251" on="0"/>
        <pt x="216" y="249" on="1"/>
        <pt x="216" y="240" on="0"/>
        <pt x="223" y="225" on="0"/>
        <pt x="234" y="217" on="0"/>
      </contour>
    </TTGlyph>
    <TTGlyph name="glyph00013" xMin="100" yMin="-76" xMax="475" yMax="665">
      <contour>
        <pt x="152" y="-75" on="1"/>
        <pt x="139" y="-76" on="0"/>
        <pt x="117" y="-50" on="0"/>
        <pt x="104" y="-1" on="0"/>
        <pt x="104" y="32" on="1"/>
        <pt x="100" y="73" on="0"/>
        <pt x="122" y="200" on="0"/>
        <pt x="144" y="279" on="1"/>
        <pt x="152" y="306" on="0"/>
        <pt x="182" y="384" on="0"/>
        <pt x="215" y="460" on="0"/>
        <pt x="241" y="513" on="0"/>
        <pt x="244" y="516" on="1"/>
        <pt x="250" y="514" on="0"/>
        <pt x="250" y="525" on="1"/>
        <pt x="250" y="527" on="0"/>
        <pt x="266" y="553" on="0"/>
        <pt x="273" y="568" on="1"/>
        <pt x="286" y="587" on="0"/>
        <pt x="322" y="624" on="0"/>
        <pt x="361" y="653" on="0"/>
        <pt x="377" y="659" on="1"/>
        <pt x="392" y="665" on="0"/>
        <pt x="407" y="665" on="1"/>
        <pt x="426" y="665" on="0"/>
        <pt x="457" y="647" on="0"/>
        <pt x="475" y="616" on="0"/>
        <pt x="475" y="597" on="1"/>
        <pt x="475" y="581" on="0"/>
        <pt x="468" y="566" on="1"/>
        <pt x="465" y="551" on="0"/>
        <pt x="448" y="518" on="0"/>
        <pt x="431" y="491" on="0"/>
        <pt x="426" y="484" on="1"/>
        <pt x="413" y="477" on="0"/>
        <pt x="395" y="479" on="0"/>
        <pt x="400" y="486" on="1"/>
        <pt x="400" y="490" on="0"/>
        <pt x="405" y="502" on="0"/>
        <pt x="406" y="509" on="1"/>
        <pt x="406" y="511" on="0"/>
        <pt x="415" y="531" on="0"/>
        <pt x="415" y="541" on="1"/>
        <pt x="424" y="577" on="0"/>
        <pt x="423" y="607" on="0"/>
        <pt x="414" y="607" on="1"/>
        <pt x="409" y="608" on="0"/>
        <pt x="387" y="598" on="0"/>
        <pt x="369" y="585" on="0"/>
        <pt x="369" y="580" on="1"/>
        <pt x="369" y="577" on="0"/>
        <pt x="369" y="576" on="0"/>
        <pt x="369" y="576" on="1"/>
        <pt x="366" y="577" on="0"/>
        <pt x="335" y="542" on="0"/>
        <pt x="298" y="493" on="0"/>
        <pt x="286" y="473" on="1"/>
        <pt x="278" y="456" on="0"/>
        <pt x="252" y="400" on="0"/>
        <pt x="235" y="356" on="1"/>
        <pt x="227" y="332" on="1"/>
        <pt x="243" y="330" on="1"/>
        <pt x="251" y="329" on="0"/>
        <pt x="285" y="334" on="0"/>
        <pt x="301" y="337" on="1"/>
        <pt x="335" y="342" on="0"/>
        <pt x="363" y="332" on="0"/>
        <pt x="370" y="316" on="1"/>
        <pt x="381" y="292" on="0"/>
        <pt x="327" y="275" on="0"/>
        <pt x="251" y="271" on="1"/>
        <pt x="235" y="273" on="0"/>
        <pt x="212" y="272" on="0"/>
        <pt x="208" y="268" on="1"/>
        <pt x="204" y="266" on="0"/>
        <pt x="190" y="227" on="0"/>
        <pt x="175" y="174" on="0"/>
        <pt x="171" y="150" on="1"/>
        <pt x="163" y="119" on="0"/>
        <pt x="157" y="54" on="0"/>
        <pt x="159" y="-1" on="0"/>
        <pt x="163" y="-16" on="1"/>
        <pt x="169" y="-40" on="0"/>
        <pt x="164" y="-70" on="0"/>
      </contour>
    </TTGlyph>
    <TTGlyph name="glyph00014" xMin="131" yMin="19" xMax="487" yMax="655">
      <contour>
        <pt x="415" y="31" on="1"/>
        <pt x="390" y="19" on="0"/>
        <pt x="350" y="30" on="0"/>
        <pt x="327" y="72" on="0"/>
        <pt x="327" y="104" on="1"/>
        <pt x="327" y="115" on="0"/>
        <pt x="334" y="159" on="0"/>
        <pt x="344" y="208" on="0"/>
        <pt x="350" y="226" on="1"/>
        <pt x="353" y="235" on="0"/>
        <pt x="356" y="245" on="0"/>
        <pt x="352" y="245" on="1"/>
        <pt x="348" y="245" on="0"/>
        <pt x="337" y="235" on="0"/>
        <pt x="334" y="232" on="1"/>
        <pt x="312" y="214" on="0"/>
        <pt x="265" y="162" on="0"/>
        <pt x="225" y="109" on="0"/>
        <pt x="200" y="65" on="0"/>
        <pt x="200" y="55" on="1"/>
        <pt x="200" y="40" on="0"/>
        <pt x="170" y="28" on="0"/>
        <pt x="159" y="35" on="1"/>
        <pt x="140" y="46" on="0"/>
        <pt x="131" y="77" on="0"/>
        <pt x="134" y="114" on="1"/>
        <pt x="137" y="161" on="0"/>
        <pt x="147" y="235" on="0"/>
        <pt x="170" y="322" on="0"/>
        <pt x="189" y="385" on="1"/>
        <pt x="202" y="420" on="0"/>
        <pt x="224" y="483" on="0"/>
        <pt x="241" y="527" on="0"/>
        <pt x="243" y="532" on="1"/>
        <pt x="248" y="537" on="0"/>
        <pt x="264" y="576" on="0"/>
        <pt x="277" y="616" on="0"/>
        <pt x="277" y="620" on="1"/>
        <pt x="277" y="628" on="0"/>
        <pt x="283" y="641" on="0"/>
        <pt x="287" y="645" on="1"/>
        <pt x="291" y="649" on="0"/>
        <pt x="297" y="655" on="0"/>
        <pt x="297" y="655" on="1"/>
        <pt x="302" y="655" on="0"/>
        <pt x="317" y="649" on="0"/>
        <pt x="331" y="638" on="0"/>
        <pt x="333" y="630" on="1"/>
        <pt x="340" y="616" on="0"/>
        <pt x="340" y="587" on="0"/>
        <pt x="323" y="545" on="0"/>
        <pt x="303" y="508" on="1"/>
        <pt x="287" y="477" on="0"/>
        <pt x="261" y="411" on="0"/>
        <pt x="249" y="375" on="1"/>
        <pt x="244" y="360" on="0"/>
        <pt x="227" y="306" on="0"/>
        <pt x="210" y="248" on="0"/>
        <pt x="199" y="203" on="0"/>
        <pt x="199" y="197" on="1"/>
        <pt x="199" y="190" on="0"/>
        <pt x="215" y="191" on="0"/>
        <pt x="223" y="202" on="1"/>
        <pt x="227" y="210" on="0"/>
        <pt x="253" y="234" on="0"/>
        <pt x="261" y="241" on="1"/>
        <pt x="269" y="248" on="0"/>
        <pt x="297" y="274" on="0"/>
        <pt x="329" y="301" on="0"/>
        <pt x="357" y="320" on="0"/>
        <pt x="365" y="320" on="1"/>
        <pt x="378" y="320" on="0"/>
        <pt x="400" y="301" on="0"/>
        <pt x="404" y="290" on="1"/>
        <pt x="407" y="287" on="0"/>
        <pt x="413" y="278" on="0"/>
        <pt x="414" y="276" on="1"/>
        <pt x="419" y="272" on="0"/>
        <pt x="410" y="211" on="0"/>
        <pt x="394" y="163" on="1"/>
        <pt x="385" y="126" on="0"/>
        <pt x="374" y="75" on="0"/>
        <pt x="382" y="75" on="1"/>
        <pt x="382" y="75" on="0"/>
        <pt x="403" y="87" on="0"/>
        <pt x="415" y="94" on="1"/>
        <pt x="444" y="113" on="0"/>
        <pt x="487" y="120" on="0"/>
        <pt x="487" y="109" on="1"/>
        <pt x="487" y="105" on="0"/>
        <pt x="481" y="98" on="0"/>
        <pt x="481" y="94" on="1"/>
        <pt x="481" y="94" on="0"/>
        <pt x="481" y="93" on="0"/>
        <pt x="481" y="89" on="1"/>
        <pt x="481" y="87" on="0"/>
        <pt x="455" y="60" on="0"/>
        <pt x="424" y="33" on="0"/>
      </contour>
    </TTGlyph>
    <TTGlyph name="glyph00015" xMin="112" yMin="30" xMax="287" yMax="539">
      <contour>
        <pt x="150" y="31" on="1"/>
        <pt x="135" y="33" on="0"/>
        <pt x="114" y="72" on="0"/>
        <pt x="112" y="88" on="1"/>
        <pt x="113" y="96" on="0"/>
        <pt x="116" y="126" on="0"/>
        <pt x="118" y="142" on="1"/>
        <pt x="122" y="161" on="0"/>
        <pt x="136" y="216" on="0"/>
        <pt x="151" y="272" on="0"/>
        <pt x="163" y="312" on="0"/>
        <pt x="165" y="316" on="1"/>
        <pt x="170" y="324" on="0"/>
        <pt x="192" y="316" on="0"/>
        <pt x="199" y="308" on="1"/>
        <pt x="205" y="300" on="0"/>
        <pt x="208" y="278" on="0"/>
        <pt x="199" y="236" on="0"/>
        <pt x="187" y="195" on="1"/>
        <pt x="176" y="155" on="0"/>
        <pt x="165" y="106" on="0"/>
        <pt x="166" y="79" on="1"/>
        <pt x="162" y="45" on="0"/>
        <pt x="158" y="30" on="0"/>
      </contour>
      <contour>
        <pt x="265" y="430" on="1"/>
        <pt x="261" y="427" on="0"/>
        <pt x="254" y="428" on="0"/>
        <pt x="246" y="433" on="1"/>
        <pt x="239" y="434" on="0"/>
        <pt x="218" y="451" on="0"/>
        <pt x="203" y="470" on="0"/>
        <pt x="203" y="472" on="1"/>
        <pt x="202" y="482" on="0"/>
        <pt x="207" y="513" on="0"/>
        <pt x="223" y="538" on="0"/>
        <pt x="238" y="539" on="1"/>
        <pt x="242" y="539" on="0"/>
        <pt x="248" y="537" on="0"/>
        <pt x="263" y="531" on="1"/>
        <pt x="271" y="516" on="0"/>
        <pt x="287" y="479" on="0"/>
        <pt x="285" y="444" on="0"/>
      </contour>
    </TTGlyph>
    <TTGlyph name="glyph00016" xMin="96" yMin="41" xMax="324" yMax="641">
      <contour>
        <pt x="116" y="47" on="1"/>
        <pt x="106" y="53" on="0"/>
        <pt x="96" y="65" on="0"/>
        <pt x="96" y="76" on="1"/>
        <pt x="96" y="91" on="0"/>
        <pt x="104" y="124" on="0"/>
        <pt x="108" y="140" on="1"/>
        <pt x="110" y="158" on="0"/>
        <pt x="117" y="195" on="0"/>
        <pt x="127" y="211" on="1"/>
        <pt x="138" y="249" on="0"/>
        <pt x="162" y="324" on="0"/>
        <pt x="171" y="364" on="1"/>
        <pt x="184" y="401" on="0"/>
        <pt x="205" y="458" on="0"/>
        <pt x="221" y="502" on="1"/>
        <pt x="230" y="527" on="0"/>
        <pt x="243" y="584" on="0"/>
        <pt x="257" y="607" on="1"/>
        <pt x="263" y="616" on="0"/>
        <pt x="270" y="629" on="0"/>
        <pt x="274" y="635" on="1"/>
        <pt x="275" y="639" on="0"/>
        <pt x="286" y="641" on="0"/>
        <pt x="300" y="637" on="0"/>
        <pt x="304" y="632" on="1"/>
        <pt x="307" y="633" on="0"/>
        <pt x="316" y="620" on="0"/>
        <pt x="324" y="604" on="0"/>
        <pt x="323" y="598" on="1"/>
        <pt x="323" y="594" on="0"/>
        <pt x="320" y="580" on="0"/>
        <pt x="316" y="574" on="1"/>
        <pt x="312" y="570" on="0"/>
        <pt x="305" y="555" on="0"/>
        <pt x="298" y="542" on="1"/>
        <pt x="294" y="529" on="0"/>
        <pt x="288" y="502" on="0"/>
        <pt x="283" y="491" on="1"/>
        <pt x="279" y="479" on="0"/>
        <pt x="268" y="457" on="0"/>
        <pt x="266" y="450" on="1"/>
        <pt x="259" y="427" on="0"/>
        <pt x="240" y="383" on="0"/>
        <pt x="233" y="358" on="1"/>
        <pt x="226" y="334" on="0"/>
        <pt x="212" y="283" on="0"/>
        <pt x="199" y="260" on="1"/>
        <pt x="192" y="249" on="0"/>
        <pt x="186" y="215" on="0"/>
        <pt x="183" y="198" on="1"/>
        <pt x="177" y="180" on="0"/>
        <pt x="168" y="149" on="0"/>
        <pt x="168" y="145" on="1"/>
        <pt x="162" y="123" on="0"/>
        <pt x="157" y="80" on="0"/>
        <pt x="149" y="64" on="1"/>
        <pt x="148" y="54" on="0"/>
        <pt x="142" y="42" on="0"/>
        <pt x="128" y="41" on="0"/>
      </contour>
    </TTGlyph>
    <TTGlyph name="glyph00017" xMin="116" yMin="34" xMax="444" yMax="373">
      <contour>
        <pt x="205" y="38" on="1"/>
        <pt x="184" y="34" on="0"/>
        <pt x="173" y="37" on="0"/>
        <pt x="162" y="47" on="1"/>
        <pt x="146" y="55" on="0"/>
        <pt x="125" y="79" on="0"/>
        <pt x="116" y="106" on="0"/>
        <pt x="117" y="115" on="1"/>
        <pt x="120" y="150" on="0"/>
        <pt x="148" y="230" on="0"/>
        <pt x="188" y="304" on="0"/>
        <pt x="235" y="357" on="0"/>
        <pt x="257" y="365" on="1"/>
        <pt x="277" y="373" on="0"/>
        <pt x="313" y="369" on="0"/>
        <pt x="321" y="352" on="1"/>
        <pt x="336" y="323" on="0"/>
        <pt x="314" y="315" on="1"/>
        <pt x="311" y="315" on="0"/>
        <pt x="303" y="310" on="0"/>
        <pt x="303" y="306" on="1"/>
        <pt x="307" y="304" on="0"/>
        <pt x="343" y="307" on="0"/>
        <pt x="380" y="316" on="0"/>
        <pt x="386" y="321" on="1"/>
        <pt x="392" y="324" on="0"/>
        <pt x="398" y="324" on="0"/>
        <pt x="410" y="322" on="1"/>
        <pt x="427" y="317" on="0"/>
        <pt x="427" y="310" on="1"/>
        <pt x="427" y="306" on="0"/>
        <pt x="433" y="299" on="0"/>
        <pt x="437" y="299" on="1"/>
        <pt x="444" y="298" on="0"/>
        <pt x="427" y="282" on="0"/>
        <pt x="407" y="268" on="1"/>
        <pt x="388" y="256" on="0"/>
        <pt x="379" y="249" on="0"/>
        <pt x="382" y="238" on="1"/>
        <pt x="390" y="219" on="0"/>
        <pt x="376" y="169" on="0"/>
        <pt x="340" y="117" on="0"/>
        <pt x="289" y="72" on="0"/>
        <pt x="232" y="41" on="0"/>
      </contour>
      <contour>
        <pt x="188" y="82" on="1"/>
        <pt x="192" y="82" on="0"/>
        <pt x="212" y="91" on="0"/>
        <pt x="218" y="94" on="1"/>
        <pt x="222" y="98" on="0"/>
        <pt x="235" y="109" on="0"/>
        <pt x="239" y="110" on="1"/>
        <pt x="243" y="110" on="0"/>
        <pt x="255" y="117" on="0"/>
        <pt x="277" y="140" on="0"/>
        <pt x="295" y="163" on="1"/>
        <pt x="315" y="185" on="0"/>
        <pt x="337" y="222" on="0"/>
        <pt x="332" y="238" on="1"/>
        <pt x="331" y="242" on="0"/>
        <pt x="322" y="244" on="0"/>
        <pt x="315" y="248" on="1"/>
        <pt x="305" y="248" on="0"/>
        <pt x="288" y="259" on="0"/>
        <pt x="277" y="268" on="1"/>
        <pt x="261" y="288" on="1"/>
        <pt x="244" y="271" on="1"/>
        <pt x="228" y="255" on="0"/>
        <pt x="193" y="192" on="0"/>
        <pt x="169" y="127" on="0"/>
        <pt x="167" y="108" on="1"/>
        <pt x="166" y="93" on="0"/>
        <pt x="178" y="83" on="0"/>
      </contour>
    </TTGlyph>
    <TTGlyph name="glyph00018" xMin="117" yMin="30" xMax="418" yMax="362">
      <contour>
        <pt x="161" y="31" on="1"/>
        <pt x="158" y="30" on="0"/>
        <pt x="144" y="34" on="0"/>
        <pt x="130" y="40" on="0"/>
        <pt x="128" y="42" on="1"/>
        <pt x="124" y="46" on="0"/>
        <pt x="117" y="62" on="0"/>
        <pt x="123" y="93" on="0"/>
        <pt x="140" y="118" on="1"/>
        <pt x="145" y="128" on="0"/>
        <pt x="159" y="168" on="0"/>
        <pt x="174" y="213" on="0"/>
        <pt x="187" y="249" on="0"/>
        <pt x="190" y="256" on="1"/>
        <pt x="192" y="273" on="0"/>
        <pt x="185" y="288" on="0"/>
        <pt x="171" y="289" on="1"/>
        <pt x="161" y="289" on="0"/>
        <pt x="150" y="293" on="0"/>
        <pt x="150" y="311" on="1"/>
        <pt x="152" y="325" on="0"/>
        <pt x="163" y="336" on="0"/>
        <pt x="173" y="343" on="1"/>
        <pt x="183" y="348" on="0"/>
        <pt x="204" y="352" on="0"/>
        <pt x="224" y="350" on="0"/>
        <pt x="230" y="344" on="1"/>
        <pt x="237" y="340" on="0"/>
        <pt x="241" y="313" on="0"/>
        <pt x="242" y="285" on="0"/>
        <pt x="243" y="278" on="1"/>
        <pt x="253" y="286" on="0"/>
        <pt x="288" y="315" on="0"/>
        <pt x="301" y="328" on="1"/>
        <pt x="317" y="339" on="0"/>
        <pt x="361" y="362" on="0"/>
        <pt x="371" y="362" on="1"/>
        <pt x="382" y="362" on="0"/>
        <pt x="404" y="351" on="0"/>
        <pt x="408" y="343" on="1"/>
        <pt x="418" y="326" on="0"/>
        <pt x="417" y="300" on="0"/>
        <pt x="406" y="286" on="1"/>
        <pt x="396" y="273" on="0"/>
        <pt x="367" y="263" on="0"/>
        <pt x="363" y="263" on="1"/>
        <pt x="357" y="263" on="0"/>
        <pt x="339" y="281" on="0"/>
        <pt x="338" y="287" on="1"/>
        <pt x="338" y="290" on="0"/>
        <pt x="313" y="273" on="0"/>
        <pt x="283" y="248" on="0"/>
        <pt x="273" y="238" on="1"/>
        <pt x="256" y="217" on="0"/>
        <pt x="218" y="145" on="0"/>
        <pt x="192" y="94" on="1"/>
        <pt x="180" y="69" on="0"/>
        <pt x="170" y="34" on="0"/>
      </contour>
    </TTGlyph>
    <TTGlyph name="glyph00019" xMin="114" yMin="-3" xMax="413" yMax="520">
      <contour>
        <pt x="225" y="2" on="1"/>
        <pt x="211" y="6" on="0"/>
        <pt x="193" y="17" on="0"/>
        <pt x="178" y="30" on="1"/>
        <pt x="166" y="46" on="0"/>
        <pt x="153" y="74" on="0"/>
        <pt x="149" y="111" on="0"/>
        <pt x="149" y="140" on="1"/>
        <pt x="149" y="152" on="0"/>
        <pt x="158" y="200" on="0"/>
        <pt x="171" y="253" on="0"/>
        <pt x="182" y="295" on="0"/>
        <pt x="183" y="301" on="1"/>
        <pt x="186" y="314" on="0"/>
        <pt x="160" y="318" on="0"/>
        <pt x="129" y="317" on="0"/>
        <pt x="124" y="320" on="1"/>
        <pt x="120" y="321" on="0"/>
        <pt x="120" y="326" on="0"/>
        <pt x="120" y="326" on="1"/>
        <pt x="120" y="330" on="0"/>
        <pt x="119" y="333" on="0"/>
        <pt x="116" y="338" on="1"/>
        <pt x="114" y="342" on="0"/>
        <pt x="123" y="357" on="0"/>
        <pt x="134" y="359" on="1"/>
        <pt x="143" y="361" on="0"/>
        <pt x="174" y="364" on="0"/>
        <pt x="206" y="375" on="0"/>
        <pt x="216" y="387" on="1"/>
        <pt x="225" y="409" on="0"/>
        <pt x="249" y="463" on="0"/>
        <pt x="272" y="506" on="0"/>
        <pt x="276" y="511" on="1"/>
        <pt x="293" y="520" on="0"/>
        <pt x="309" y="517" on="0"/>
        <pt x="319" y="501" on="1"/>
        <pt x="324" y="494" on="0"/>
        <pt x="329" y="486" on="0"/>
        <pt x="325" y="470" on="0"/>
        <pt x="308" y="436" on="0"/>
        <pt x="291" y="404" on="1"/>
        <pt x="286" y="394" on="0"/>
        <pt x="278" y="379" on="0"/>
        <pt x="278" y="379" on="1"/>
        <pt x="282" y="378" on="0"/>
        <pt x="298" y="378" on="0"/>
        <pt x="310" y="379" on="1"/>
        <pt x="321" y="381" on="0"/>
        <pt x="355" y="384" on="0"/>
        <pt x="365" y="382" on="1"/>
        <pt x="388" y="382" on="0"/>
        <pt x="410" y="365" on="0"/>
        <pt x="411" y="345" on="1"/>
        <pt x="413" y="334" on="0"/>
        <pt x="400" y="330" on="0"/>
        <pt x="373" y="330" on="1"/>
        <pt x="364" y="330" on="0"/>
        <pt x="326" y="328" on="0"/>
        <pt x="285" y="326" on="0"/>
        <pt x="256" y="323" on="0"/>
        <pt x="256" y="321" on="1"/>
        <pt x="253" y="319" on="0"/>
        <pt x="240" y="285" on="0"/>
        <pt x="227" y="242" on="0"/>
        <pt x="222" y="225" on="1"/>
        <pt x="215" y="191" on="0"/>
        <pt x="208" y="123" on="0"/>
        <pt x="212" y="73" on="0"/>
        <pt x="221" y="63" on="1"/>
        <pt x="230" y="54" on="0"/>
        <pt x="282" y="65" on="0"/>
        <pt x="298" y="78" on="1"/>
        <pt x="316" y="93" on="0"/>
        <pt x="339" y="93" on="0"/>
        <pt x="342" y="72" on="0"/>
        <pt x="329" y="53" on="1"/>
        <pt x="317" y="35" on="0"/>
        <pt x="281" y="8" on="0"/>
        <pt x="242" y="-3" on="0"/>
      </contour>
    </TTGlyph>
    <TTGlyph name="glyph00020" xMin="124" yMin="-1" xMax="577" yMax="409">
      <contour>
        <pt x="342" y="6" on="1"/>
        <pt x="328" y="14" on="0"/>
        <pt x="310" y="41" on="0"/>
        <pt x="303" y="86" on="0"/>
        <pt x="303" y="120" on="1"/>
        <pt x="303" y="138" on="0"/>
        <pt x="303" y="168" on="0"/>
        <pt x="303" y="168" on="1"/>
        <pt x="303" y="168" on="0"/>
        <pt x="283" y="142" on="0"/>
        <pt x="269" y="120" on="1"/>
        <pt x="247" y="79" on="0"/>
        <pt x="201" y="26" on="0"/>
        <pt x="190" y="22" on="1"/>
        <pt x="185" y="20" on="0"/>
        <pt x="165" y="23" on="0"/>
        <pt x="144" y="30" on="0"/>
        <pt x="128" y="40" on="0"/>
        <pt x="126" y="46" on="1"/>
        <pt x="124" y="51" on="0"/>
        <pt x="124" y="86" on="0"/>
        <pt x="127" y="129" on="0"/>
        <pt x="133" y="166" on="0"/>
        <pt x="137" y="174" on="1"/>
        <pt x="137" y="177" on="0"/>
        <pt x="140" y="184" on="0"/>
        <pt x="137" y="188" on="1"/>
        <pt x="137" y="188" on="0"/>
        <pt x="150" y="232" on="0"/>
        <pt x="169" y="292" on="0"/>
        <pt x="186" y="345" on="0"/>
        <pt x="190" y="354" on="1"/>
        <pt x="190" y="362" on="0"/>
        <pt x="195" y="380" on="0"/>
        <pt x="195" y="384" on="1"/>
        <pt x="195" y="393" on="0"/>
        <pt x="205" y="403" on="1"/>
        <pt x="216" y="409" on="0"/>
        <pt x="229" y="402" on="0"/>
        <pt x="239" y="394" on="1"/>
        <pt x="249" y="384" on="0"/>
        <pt x="256" y="372" on="0"/>
        <pt x="249" y="350" on="0"/>
        <pt x="239" y="325" on="1"/>
        <pt x="229" y="303" on="0"/>
        <pt x="211" y="254" on="0"/>
        <pt x="198" y="213" on="0"/>
        <pt x="195" y="202" on="1"/>
        <pt x="195" y="195" on="0"/>
        <pt x="190" y="182" on="0"/>
        <pt x="190" y="178" on="1"/>
        <pt x="187" y="175" on="0"/>
        <pt x="186" y="167" on="0"/>
        <pt x="186" y="163" on="1"/>
        <pt x="186" y="159" on="0"/>
        <pt x="180" y="140" on="0"/>
        <pt x="180" y="129" on="1"/>
        <pt x="176" y="110" on="0"/>
        <pt x="193" y="105" on="0"/>
        <pt x="201" y="109" on="1"/>
        <pt x="204" y="113" on="0"/>
        <pt x="225" y="133" on="0"/>
        <pt x="232" y="144" on="1"/>
        <pt x="236" y="156" on="0"/>
        <pt x="245" y="164" on="0"/>
        <pt x="251" y="170" on="0"/>
        <pt x="251" y="178" on="1"/>
        <pt x="251" y="182" on="0"/>
        <pt x="270" y="207" on="0"/>
        <pt x="281" y="223" on="1"/>
        <pt x="302" y="259" on="0"/>
        <pt x="307" y="269" on="1"/>
        <pt x="315" y="283" on="0"/>
        <pt x="332" y="304" on="0"/>
        <pt x="339" y="320" on="1"/>
        <pt x="343" y="328" on="0"/>
        <pt x="348" y="335" on="0"/>
        <pt x="359" y="335" on="1"/>
        <pt x="370" y="335" on="0"/>
        <pt x="380" y="331" on="0"/>
        <pt x="383" y="320" on="1"/>
        <pt x="391" y="313" on="0"/>
        <pt x="393" y="298" on="0"/>
        <pt x="393" y="291" on="1"/>
        <pt x="389" y="287" on="0"/>
        <pt x="388" y="276" on="0"/>
        <pt x="388" y="276" on="1"/>
        <pt x="388" y="273" on="0"/>
        <pt x="381" y="243" on="0"/>
        <pt x="374" y="229" on="1"/>
        <pt x="366" y="195" on="0"/>
        <pt x="356" y="118" on="0"/>
        <pt x="357" y="63" on="0"/>
        <pt x="362" y="59" on="1"/>
        <pt x="368" y="55" on="0"/>
        <pt x="403" y="101" on="0"/>
        <pt x="425" y="134" on="1"/>
        <pt x="430" y="142" on="0"/>
        <pt x="462" y="178" on="0"/>
        <pt x="468" y="192" on="1"/>
        <pt x="468" y="197" on="0"/>
        <pt x="480" y="220" on="0"/>
        <pt x="492" y="247" on="0"/>
        <pt x="492" y="256" on="1"/>
        <pt x="491" y="258" on="0"/>
        <pt x="513" y="290" on="0"/>
        <pt x="523" y="315" on="1"/>
        <pt x="528" y="335" on="0"/>
        <pt x="555" y="353" on="0"/>
        <pt x="577" y="348" on="0"/>
        <pt x="574" y="331" on="1"/>
        <pt x="569" y="297" on="0"/>
        <pt x="534" y="208" on="0"/>
        <pt x="489" y="119" on="0"/>
        <pt x="467" y="85" on="1"/>
        <pt x="459" y="78" on="0"/>
        <pt x="447" y="59" on="0"/>
        <pt x="447" y="55" on="1"/>
        <pt x="447" y="53" on="0"/>
        <pt x="430" y="38" on="0"/>
        <pt x="406" y="19" on="0"/>
        <pt x="393" y="11" on="1"/>
        <pt x="380" y="1" on="0"/>
        <pt x="358" y="-1" on="0"/>
      </contour>
    </TTGlyph>
    <TTGlyph name="glyph00021" xMin="84" yMin="-1" xMax="520" yMax="638">
      <contour>
        <pt x="323" y="3" on="1"/>
        <pt x="312" y="-1" on="0"/>
        <pt x="303" y="2" on="0"/>
        <pt x="286" y="15" on="1"/>
        <pt x="279" y="27" on="0"/>
        <pt x="276" y="46" on="0"/>
        <pt x="276" y="71" on="1"/>
        <pt x="278" y="86" on="0"/>
        <pt x="291" y="142" on="0"/>
        <pt x="309" y="204" on="0"/>
        <pt x="324" y="254" on="0"/>
        <pt x="328" y="263" on="1"/>
        <pt x="335" y="287" on="0"/>
        <pt x="327" y="298" on="0"/>
        <pt x="307" y="300" on="1"/>
        <pt x="267" y="305" on="0"/>
        <pt x="203" y="243" on="0"/>
        <pt x="171" y="193" on="1"/>
        <pt x="147" y="156" on="0"/>
        <pt x="138" y="103" on="0"/>
        <pt x="141" y="93" on="1"/>
        <pt x="144" y="85" on="0"/>
        <pt x="166" y="84" on="0"/>
        <pt x="193" y="94" on="0"/>
        <pt x="203" y="99" on="1"/>
        <pt x="210" y="103" on="0"/>
        <pt x="231" y="112" on="0"/>
        <pt x="241" y="116" on="1"/>
        <pt x="247" y="116" on="0"/>
        <pt x="252" y="109" on="0"/>
        <pt x="252" y="99" on="1"/>
        <pt x="252" y="95" on="0"/>
        <pt x="258" y="89" on="0"/>
        <pt x="262" y="87" on="1"/>
        <pt x="266" y="83" on="0"/>
        <pt x="235" y="55" on="0"/>
        <pt x="203" y="37" on="1"/>
        <pt x="173" y="30" on="0"/>
        <pt x="136" y="30" on="0"/>
        <pt x="119" y="43" on="1"/>
        <pt x="91" y="60" on="0"/>
        <pt x="84" y="137" on="0"/>
        <pt x="103" y="193" on="1"/>
        <pt x="122" y="238" on="0"/>
        <pt x="168" y="295" on="0"/>
        <pt x="194" y="322" on="1"/>
        <pt x="198" y="326" on="0"/>
        <pt x="227" y="343" on="0"/>
        <pt x="249" y="350" on="1"/>
        <pt x="274" y="358" on="0"/>
        <pt x="318" y="362" on="0"/>
        <pt x="334" y="351" on="1"/>
        <pt x="352" y="347" on="0"/>
        <pt x="362" y="358" on="0"/>
        <pt x="374" y="388" on="1"/>
        <pt x="394" y="438" on="0"/>
        <pt x="432" y="541" on="0"/>
        <pt x="454" y="594" on="1"/>
        <pt x="464" y="613" on="0"/>
        <pt x="469" y="634" on="0"/>
        <pt x="473" y="638" on="1"/>
        <pt x="492" y="638" on="1"/>
        <pt x="496" y="638" on="0"/>
        <pt x="516" y="624" on="0"/>
        <pt x="520" y="612" on="1"/>
        <pt x="520" y="603" on="0"/>
        <pt x="504" y="542" on="0"/>
        <pt x="486" y="500" on="1"/>
        <pt x="470" y="463" on="0"/>
        <pt x="439" y="388" on="0"/>
        <pt x="425" y="346" on="1"/>
        <pt x="414" y="315" on="0"/>
        <pt x="396" y="277" on="0"/>
        <pt x="393" y="263" on="1"/>
        <pt x="387" y="237" on="0"/>
        <pt x="370" y="196" on="0"/>
        <pt x="367" y="188" on="1"/>
        <pt x="354" y="150" on="0"/>
        <pt x="338" y="103" on="0"/>
        <pt x="330" y="72" on="0"/>
        <pt x="329" y="41" on="0"/>
        <pt x="332" y="20" on="1"/>
        <pt x="332" y="16" on="0"/>
        <pt x="330" y="8" on="0"/>
      </contour>
    </TTGlyph>
    <TTGlyph name="glyph00022" xMin="88" yMin="15" xMax="376" yMax="378">
      <contour>
        <pt x="170" y="24" on="1"/>
        <pt x="131" y="40" on="0"/>
        <pt x="108" y="97" on="0"/>
        <pt x="115" y="157" on="1"/>
        <pt x="117" y="188" on="0"/>
        <pt x="117" y="208" on="0"/>
        <pt x="106" y="218" on="1"/>
        <pt x="103" y="222" on="0"/>
        <pt x="88" y="236" on="0"/>
        <pt x="89" y="241" on="1"/>
        <pt x="88" y="248" on="0"/>
        <pt x="92" y="265" on="0"/>
        <pt x="96" y="265" on="1"/>
        <pt x="100" y="265" on="0"/>
        <pt x="109" y="269" on="0"/>
        <pt x="113" y="267" on="1"/>
        <pt x="117" y="267" on="0"/>
        <pt x="127" y="265" on="0"/>
        <pt x="127" y="261" on="1"/>
        <pt x="131" y="254" on="0"/>
        <pt x="149" y="265" on="0"/>
        <pt x="159" y="285" on="1"/>
        <pt x="169" y="301" on="0"/>
        <pt x="202" y="333" on="0"/>
        <pt x="235" y="360" on="0"/>
        <pt x="246" y="366" on="1"/>
        <pt x="251" y="368" on="0"/>
        <pt x="271" y="374" on="0"/>
        <pt x="294" y="378" on="0"/>
        <pt x="302" y="377" on="1"/>
        <pt x="320" y="376" on="0"/>
        <pt x="345" y="358" on="0"/>
        <pt x="356" y="346" on="1"/>
        <pt x="369" y="337" on="0"/>
        <pt x="376" y="307" on="0"/>
        <pt x="372" y="273" on="0"/>
        <pt x="365" y="259" on="1"/>
        <pt x="362" y="249" on="0"/>
        <pt x="334" y="221" on="0"/>
        <pt x="298" y="195" on="0"/>
        <pt x="283" y="189" on="1"/>
        <pt x="270" y="186" on="0"/>
        <pt x="229" y="182" on="0"/>
        <pt x="194" y="183" on="0"/>
        <pt x="188" y="186" on="1"/>
        <pt x="181" y="190" on="0"/>
        <pt x="173" y="160" on="0"/>
        <pt x="171" y="132" on="1"/>
        <pt x="169" y="110" on="0"/>
        <pt x="173" y="90" on="0"/>
        <pt x="175" y="86" on="1"/>
        <pt x="182" y="79" on="0"/>
        <pt x="207" y="58" on="0"/>
        <pt x="230" y="65" on="1"/>
        <pt x="249" y="70" on="0"/>
        <pt x="286" y="112" on="0"/>
        <pt x="302" y="125" on="1"/>
        <pt x="306" y="132" on="0"/>
        <pt x="325" y="135" on="0"/>
        <pt x="336" y="132" on="1"/>
        <pt x="347" y="125" on="0"/>
        <pt x="344" y="106" on="0"/>
        <pt x="335" y="87" on="1"/>
        <pt x="332" y="80" on="0"/>
        <pt x="311" y="59" on="0"/>
        <pt x="286" y="38" on="0"/>
        <pt x="276" y="32" on="1"/>
        <pt x="246" y="16" on="0"/>
        <pt x="194" y="15" on="0"/>
      </contour>
      <contour>
        <pt x="229" y="227" on="1"/>
        <pt x="251" y="232" on="0"/>
        <pt x="277" y="236" on="0"/>
        <pt x="301" y="255" on="0"/>
        <pt x="319" y="282" on="1"/>
        <pt x="323" y="293" on="0"/>
        <pt x="320" y="315" on="0"/>
        <pt x="316" y="319" on="1"/>
        <pt x="307" y="329" on="0"/>
        <pt x="282" y="322" on="0"/>
        <pt x="271" y="314" on="1"/>
        <pt x="264" y="311" on="0"/>
        <pt x="237" y="288" on="0"/>
        <pt x="211" y="259" on="0"/>
        <pt x="195" y="235" on="0"/>
        <pt x="199" y="233" on="1"/>
        <pt x="197" y="229" on="0"/>
        <pt x="224" y="227" on="0"/>
      </contour>
    </TTGlyph>
    <TTGlyph name="glyph00023" xMin="98" yMin="-105" xMax="513" yMax="660">
      <contour>
        <pt x="157" y="-100" on="1"/>
        <pt x="150" y="-98" on="0"/>
        <pt x="134" y="-87" on="0"/>
        <pt x="134" y="-83" on="1"/>
        <pt x="135" y="-76" on="0"/>
        <pt x="139" y="-65" on="0"/>
        <pt x="140" y="-60" on="1"/>
        <pt x="142" y="-50" on="0"/>
        <pt x="142" y="-23" on="0"/>
        <pt x="145" y="14" on="1"/>
        <pt x="148" y="54" on="0"/>
        <pt x="153" y="108" on="0"/>
        <pt x="159" y="151" on="0"/>
        <pt x="168" y="195" on="0"/>
        <pt x="175" y="225" on="1"/>
        <pt x="180" y="259" on="0"/>
        <pt x="171" y="275" on="0"/>
        <pt x="160" y="276" on="1"/>
        <pt x="141" y="278" on="0"/>
        <pt x="112" y="287" on="0"/>
        <pt x="108" y="299" on="1"/>
        <pt x="98" y="309" on="0"/>
        <pt x="108" y="321" on="0"/>
        <pt x="139" y="328" on="0"/>
        <pt x="157" y="327" on="1"/>
        <pt x="174" y="328" on="0"/>
        <pt x="193" y="331" on="0"/>
        <pt x="205" y="348" on="0"/>
        <pt x="211" y="369" on="1"/>
        <pt x="213" y="378" on="0"/>
        <pt x="224" y="410" on="0"/>
        <pt x="233" y="436" on="0"/>
        <pt x="233" y="436" on="1"/>
        <pt x="242" y="443" on="0"/>
        <pt x="242" y="454" on="1"/>
        <pt x="243" y="468" on="0"/>
        <pt x="268" y="515" on="0"/>
        <pt x="296" y="558" on="1"/>
        <pt x="330" y="602" on="0"/>
        <pt x="385" y="652" on="0"/>
        <pt x="422" y="658" on="1"/>
        <pt x="426" y="660" on="0"/>
        <pt x="454" y="660" on="0"/>
        <pt x="459" y="660" on="1"/>
        <pt x="480" y="659" on="0"/>
        <pt x="496" y="645" on="0"/>
        <pt x="505" y="628" on="1"/>
        <pt x="513" y="615" on="0"/>
        <pt x="502" y="570" on="0"/>
        <pt x="494" y="558" on="1"/>
        <pt x="489" y="550" on="0"/>
        <pt x="470" y="530" on="0"/>
        <pt x="453" y="515" on="0"/>
        <pt x="449" y="515" on="1"/>
        <pt x="444" y="515" on="0"/>
        <pt x="435" y="522" on="0"/>
        <pt x="431" y="523" on="1"/>
        <pt x="422" y="527" on="0"/>
        <pt x="434" y="548" on="0"/>
        <pt x="441" y="558" on="1"/>
        <pt x="451" y="573" on="0"/>
        <pt x="457" y="591" on="0"/>
        <pt x="455" y="605" on="0"/>
        <pt x="452" y="615" on="1"/>
        <pt x="461" y="606" on="1"/>
        <pt x="454" y="610" on="0"/>
        <pt x="436" y="608" on="0"/>
        <pt x="425" y="604" on="1"/>
        <pt x="406" y="594" on="0"/>
        <pt x="382" y="571" on="0"/>
        <pt x="374" y="563" on="1"/>
        <pt x="350" y="542" on="0"/>
        <pt x="320" y="482" on="0"/>
        <pt x="307" y="456" on="1"/>
        <pt x="303" y="448" on="0"/>
        <pt x="284" y="405" on="0"/>
        <pt x="276" y="386" on="1"/>
        <pt x="269" y="368" on="0"/>
        <pt x="255" y="341" on="0"/>
        <pt x="255" y="338" on="1"/>
        <pt x="252" y="331" on="0"/>
        <pt x="265" y="331" on="0"/>
        <pt x="285" y="332" on="1"/>
        <pt x="334" y="338" on="0"/>
        <pt x="383" y="333" on="0"/>
        <pt x="387" y="317" on="1"/>
        <pt x="404" y="293" on="0"/>
        <pt x="361" y="282" on="0"/>
        <pt x="304" y="274" on="1"/>
        <pt x="288" y="273" on="0"/>
        <pt x="256" y="272" on="0"/>
        <pt x="251" y="271" on="1"/>
        <pt x="247" y="270" on="0"/>
        <pt x="239" y="266" on="0"/>
        <pt x="234" y="248" on="1"/>
        <pt x="233" y="237" on="0"/>
        <pt x="228" y="206" on="0"/>
        <pt x="227" y="192" on="1"/>
        <pt x="223" y="180" on="0"/>
        <pt x="220" y="154" on="0"/>
        <pt x="215" y="144" on="1"/>
        <pt x="209" y="89" on="0"/>
        <pt x="205" y="-4" on="0"/>
        <pt x="198" y="-70" on="0"/>
        <pt x="185" y="-88" on="1"/>
        <pt x="178" y="-96" on="0"/>
        <pt x="163" y="-105" on="0"/>
      </contour>
    </TTGlyph>
    <TTGlyph name="glyph00024" xMin="110" yMin="17" xMax="462" yMax="644">
      <contour>
        <pt x="448" y="22" on="1"/>
        <pt x="429" y="17" on="0"/>
        <pt x="411" y="20" on="0"/>
        <pt x="396" y="35" on="1"/>
        <pt x="387" y="49" on="0"/>
        <pt x="373" y="71" on="0"/>
        <pt x="371" y="99" on="1"/>
        <pt x="370" y="118" on="0"/>
        <pt x="377" y="163" on="0"/>
        <pt x="376" y="173" on="1"/>
        <pt x="384" y="210" on="0"/>
        <pt x="381" y="255" on="0"/>
        <pt x="376" y="255" on="1"/>
        <pt x="365" y="257" on="0"/>
        <pt x="308" y="210" on="0"/>
        <pt x="235" y="135" on="0"/>
        <pt x="199" y="94" on="1"/>
        <pt x="180" y="68" on="0"/>
        <pt x="164" y="43" on="0"/>
        <pt x="160" y="43" on="1"/>
        <pt x="153" y="43" on="0"/>
        <pt x="129" y="53" on="0"/>
        <pt x="111" y="68" on="0"/>
        <pt x="110" y="74" on="1"/>
        <pt x="110" y="78" on="0"/>
        <pt x="120" y="113" on="0"/>
        <pt x="135" y="159" on="0"/>
        <pt x="147" y="199" on="0"/>
        <pt x="150" y="207" on="1"/>
        <pt x="159" y="233" on="0"/>
        <pt x="184" y="308" on="0"/>
        <pt x="194" y="337" on="1"/>
        <pt x="198" y="350" on="0"/>
        <pt x="218" y="399" on="0"/>
        <pt x="238" y="449" on="0"/>
        <pt x="242" y="461" on="1"/>
        <pt x="245" y="469" on="0"/>
        <pt x="261" y="510" on="0"/>
        <pt x="280" y="560" on="0"/>
        <pt x="297" y="603" on="0"/>
        <pt x="300" y="613" on="1"/>
        <pt x="299" y="622" on="0"/>
        <pt x="304" y="637" on="0"/>
        <pt x="307" y="641" on="1"/>
        <pt x="311" y="641" on="0"/>
        <pt x="321" y="642" on="0"/>
        <pt x="321" y="642" on="1"/>
        <pt x="321" y="644" on="0"/>
        <pt x="337" y="632" on="0"/>
        <pt x="352" y="615" on="0"/>
        <pt x="352" y="609" on="1"/>
        <pt x="357" y="596" on="0"/>
        <pt x="349" y="555" on="0"/>
        <pt x="332" y="514" on="1"/>
        <pt x="321" y="498" on="0"/>
        <pt x="300" y="434" on="0"/>
        <pt x="290" y="412" on="1"/>
        <pt x="286" y="405" on="0"/>
        <pt x="265" y="359" on="0"/>
        <pt x="238" y="297" on="0"/>
        <pt x="214" y="234" on="0"/>
        <pt x="207" y="209" on="1"/>
        <pt x="197" y="185" on="0"/>
        <pt x="203" y="169" on="0"/>
        <pt x="224" y="195" on="1"/>
        <pt x="252" y="225" on="0"/>
        <pt x="314" y="287" on="0"/>
        <pt x="369" y="330" on="0"/>
        <pt x="386" y="328" on="1"/>
        <pt x="395" y="326" on="0"/>
        <pt x="416" y="306" on="0"/>
        <pt x="436" y="280" on="0"/>
        <pt x="440" y="268" on="1"/>
        <pt x="444" y="253" on="0"/>
        <pt x="447" y="231" on="0"/>
        <pt x="445" y="188" on="0"/>
        <pt x="441" y="142" on="1"/>
        <pt x="435" y="108" on="0"/>
        <pt x="431" y="79" on="0"/>
        <pt x="438" y="67" on="0"/>
        <pt x="446" y="60" on="1"/>
        <pt x="461" y="48" on="0"/>
        <pt x="462" y="30" on="0"/>
      </contour>
    </TTGlyph>
    <TTGlyph name="glyph00025" xMin="90" yMin="49" xMax="300" yMax="534">
      <contour>
        <pt x="119" y="49" on="1"/>
        <pt x="115" y="49" on="0"/>
        <pt x="104" y="54" on="0"/>
        <pt x="104" y="54" on="1"/>
        <pt x="104" y="58" on="0"/>
        <pt x="99" y="70" on="0"/>
        <pt x="99" y="74" on="1"/>
        <pt x="92" y="78" on="0"/>
        <pt x="90" y="87" on="0"/>
        <pt x="94" y="98" on="1"/>
        <pt x="100" y="108" on="0"/>
        <pt x="120" y="153" on="0"/>
        <pt x="142" y="206" on="0"/>
        <pt x="162" y="258" on="0"/>
        <pt x="176" y="295" on="0"/>
        <pt x="177" y="299" on="1"/>
        <pt x="177" y="303" on="0"/>
        <pt x="183" y="315" on="0"/>
        <pt x="187" y="319" on="1"/>
        <pt x="195" y="326" on="0"/>
        <pt x="213" y="315" on="0"/>
        <pt x="226" y="290" on="0"/>
        <pt x="226" y="275" on="1"/>
        <pt x="226" y="268" on="0"/>
        <pt x="206" y="211" on="0"/>
        <pt x="173" y="133" on="0"/>
        <pt x="153" y="93" on="1"/>
        <pt x="138" y="64" on="0"/>
        <pt x="130" y="49" on="0"/>
      </contour>
      <contour>
        <pt x="266" y="428" on="1"/>
        <pt x="254" y="428" on="0"/>
        <pt x="227" y="447" on="0"/>
        <pt x="208" y="476" on="0"/>
        <pt x="208" y="491" on="1"/>
        <pt x="208" y="496" on="0"/>
        <pt x="220" y="514" on="0"/>
        <pt x="232" y="532" on="0"/>
        <pt x="232" y="534" on="1"/>
        <pt x="240" y="534" on="0"/>
        <pt x="249" y="533" on="0"/>
        <pt x="256" y="529" on="1"/>
        <pt x="267" y="504" on="0"/>
        <pt x="300" y="472" on="0"/>
        <pt x="300" y="461" on="1"/>
        <pt x="300" y="439" on="0"/>
        <pt x="292" y="428" on="0"/>
      </contour>
    </TTGlyph>
    <TTGlyph name="glyph00026" xMin="75" yMin="-13" xMax="324" yMax="595">
      <contour>
        <pt x="101" y="-9" on="1"/>
        <pt x="88" y="-4" on="0"/>
        <pt x="76" y="17" on="0"/>
        <pt x="75" y="37" on="1"/>
        <pt x="75" y="49" on="0"/>
        <pt x="83" y="89" on="0"/>
        <pt x="88" y="115" on="1"/>
        <pt x="88" y="117" on="0"/>
        <pt x="89" y="122" on="0"/>
        <pt x="89" y="123" on="1"/>
        <pt x="90" y="127" on="0"/>
        <pt x="93" y="143" on="0"/>
        <pt x="95" y="152" on="0"/>
        <pt x="95" y="147" on="1"/>
        <pt x="102" y="174" on="1"/>
        <pt x="107" y="192" on="0"/>
        <pt x="117" y="228" on="0"/>
        <pt x="125" y="255" on="0"/>
        <pt x="126" y="257" on="1"/>
        <pt x="126" y="257" on="0"/>
        <pt x="134" y="280" on="0"/>
        <pt x="138" y="291" on="1"/>
        <pt x="155" y="338" on="0"/>
        <pt x="183" y="403" on="0"/>
        <pt x="194" y="418" on="1"/>
        <pt x="195" y="421" on="0"/>
        <pt x="199" y="430" on="0"/>
        <pt x="200" y="433" on="1"/>
        <pt x="201" y="441" on="0"/>
        <pt x="204" y="450" on="0"/>
        <pt x="207" y="454" on="1"/>
        <pt x="209" y="458" on="0"/>
        <pt x="217" y="471" on="0"/>
        <pt x="222" y="481" on="1"/>
        <pt x="226" y="492" on="1"/>
        <pt x="232" y="505" on="0"/>
        <pt x="250" y="537" on="0"/>
        <pt x="254" y="544" on="1"/>
        <pt x="258" y="553" on="0"/>
        <pt x="274" y="578" on="0"/>
        <pt x="278" y="582" on="1"/>
        <pt x="277" y="583" on="1"/>
        <pt x="282" y="592" on="0"/>
        <pt x="297" y="595" on="0"/>
        <pt x="306" y="595" on="1"/>
        <pt x="320" y="595" on="0"/>
        <pt x="324" y="587" on="0"/>
        <pt x="324" y="573" on="1"/>
        <pt x="324" y="558" on="0"/>
        <pt x="323" y="545" on="0"/>
        <pt x="315" y="537" on="1"/>
        <pt x="316" y="537" on="1"/>
        <pt x="318" y="539" on="0"/>
        <pt x="312" y="526" on="0"/>
        <pt x="310" y="523" on="1"/>
        <pt x="308" y="518" on="0"/>
        <pt x="303" y="506" on="0"/>
        <pt x="300" y="503" on="1"/>
        <pt x="297" y="499" on="0"/>
        <pt x="274" y="454" on="0"/>
        <pt x="245" y="394" on="0"/>
        <pt x="219" y="338" on="0"/>
        <pt x="213" y="323" on="1"/>
        <pt x="208" y="308" on="1"/>
        <pt x="206" y="304" on="0"/>
        <pt x="206" y="302" on="1"/>
        <pt x="203" y="295" on="0"/>
        <pt x="197" y="281" on="0"/>
        <pt x="194" y="276" on="1"/>
        <pt x="177" y="218" on="1"/>
        <pt x="172" y="197" on="1"/>
        <pt x="163" y="175" on="1"/>
        <pt x="157" y="156" on="1"/>
        <pt x="155" y="150" on="0"/>
        <pt x="153" y="140" on="0"/>
        <pt x="150" y="137" on="1"/>
        <pt x="150" y="136" on="0"/>
        <pt x="149" y="133" on="0"/>
        <pt x="149" y="132" on="1"/>
        <pt x="145" y="116" on="0"/>
        <pt x="135" y="58" on="0"/>
        <pt x="133" y="26" on="1"/>
        <pt x="133" y="25" on="0"/>
        <pt x="132" y="23" on="0"/>
        <pt x="132" y="22" on="1"/>
        <pt x="129" y="1" on="0"/>
        <pt x="115" y="-13" on="0"/>
      </contour>
    </TTGlyph>
    <TTGlyph name="glyph00027" xMin="111" yMin="5" xMax="394" yMax="387">
      <contour>
        <pt x="201" y="6" on="1"/>
        <pt x="188" y="5" on="0"/>
        <pt x="172" y="12" on="0"/>
        <pt x="160" y="19" on="1"/>
        <pt x="138" y="36" on="0"/>
        <pt x="117" y="71" on="0"/>
        <pt x="118" y="88" on="1"/>
        <pt x="120" y="97" on="0"/>
        <pt x="117" y="111" on="0"/>
        <pt x="117" y="111" on="1"/>
        <pt x="111" y="116" on="0"/>
        <pt x="115" y="119" on="0"/>
        <pt x="116" y="123" on="1"/>
        <pt x="124" y="125" on="0"/>
        <pt x="118" y="134" on="1"/>
        <pt x="115" y="142" on="0"/>
        <pt x="128" y="199" on="0"/>
        <pt x="139" y="224" on="1"/>
        <pt x="144" y="235" on="0"/>
        <pt x="163" y="271" on="0"/>
        <pt x="187" y="308" on="0"/>
        <pt x="197" y="319" on="1"/>
        <pt x="219" y="344" on="0"/>
        <pt x="254" y="369" on="0"/>
        <pt x="276" y="377" on="1"/>
        <pt x="296" y="385" on="0"/>
        <pt x="314" y="387" on="0"/>
        <pt x="330" y="374" on="1"/>
        <pt x="354" y="367" on="0"/>
        <pt x="379" y="342" on="0"/>
        <pt x="386" y="316" on="1"/>
        <pt x="394" y="287" on="0"/>
        <pt x="389" y="208" on="0"/>
        <pt x="357" y="146" on="1"/>
        <pt x="338" y="107" on="0"/>
        <pt x="301" y="67" on="0"/>
        <pt x="275" y="45" on="1"/>
        <pt x="256" y="29" on="0"/>
        <pt x="224" y="11" on="0"/>
      </contour>
      <contour>
        <pt x="281" y="125" on="1"/>
        <pt x="301" y="155" on="0"/>
        <pt x="324" y="206" on="0"/>
        <pt x="331" y="245" on="1"/>
        <pt x="333" y="256" on="0"/>
        <pt x="331" y="289" on="0"/>
        <pt x="324" y="317" on="0"/>
        <pt x="318" y="318" on="1"/>
        <pt x="305" y="323" on="0"/>
        <pt x="273" y="314" on="0"/>
        <pt x="254" y="294" on="1"/>
        <pt x="237" y="274" on="0"/>
        <pt x="210" y="224" on="0"/>
        <pt x="188" y="164" on="0"/>
        <pt x="178" y="130" on="1"/>
        <pt x="168" y="92" on="0"/>
        <pt x="191" y="52" on="0"/>
        <pt x="245" y="73" on="0"/>
      </contour>
    </TTGlyph>
    <TTGlyph name="glyph00028" xMin="99" yMin="13" xMax="427" yMax="394">
      <contour>
        <pt x="150" y="23" on="1"/>
        <pt x="145" y="13" on="0"/>
        <pt x="126" y="21" on="0"/>
        <pt x="120" y="25" on="1"/>
        <pt x="113" y="25" on="0"/>
        <pt x="103" y="33" on="0"/>
        <pt x="101" y="41" on="1"/>
        <pt x="99" y="47" on="0"/>
        <pt x="101" y="64" on="0"/>
        <pt x="108" y="87" on="0"/>
        <pt x="112" y="101" on="1"/>
        <pt x="120" y="134" on="0"/>
        <pt x="126" y="164" on="0"/>
        <pt x="132" y="186" on="0"/>
        <pt x="137" y="207" on="1"/>
        <pt x="145" y="227" on="0"/>
        <pt x="155" y="265" on="0"/>
        <pt x="165" y="284" on="1"/>
        <pt x="172" y="310" on="0"/>
        <pt x="193" y="357" on="0"/>
        <pt x="203" y="373" on="1"/>
        <pt x="205" y="376" on="0"/>
        <pt x="216" y="386" on="0"/>
        <pt x="220" y="386" on="1"/>
        <pt x="228" y="394" on="0"/>
        <pt x="241" y="391" on="0"/>
        <pt x="251" y="383" on="1"/>
        <pt x="263" y="370" on="0"/>
        <pt x="258" y="336" on="0"/>
        <pt x="236" y="303" on="1"/>
        <pt x="224" y="272" on="0"/>
        <pt x="204" y="227" on="0"/>
        <pt x="200" y="207" on="1"/>
        <pt x="211" y="223" on="0"/>
        <pt x="238" y="250" on="0"/>
        <pt x="247" y="259" on="1"/>
        <pt x="269" y="281" on="0"/>
        <pt x="298" y="301" on="0"/>
        <pt x="318" y="314" on="1"/>
        <pt x="330" y="322" on="0"/>
        <pt x="352" y="335" on="0"/>
        <pt x="379" y="341" on="0"/>
        <pt x="395" y="338" on="1"/>
        <pt x="405" y="339" on="0"/>
        <pt x="418" y="325" on="0"/>
        <pt x="426" y="301" on="0"/>
        <pt x="427" y="285" on="1"/>
        <pt x="404" y="290" on="0"/>
        <pt x="368" y="277" on="0"/>
        <pt x="343" y="259" on="0"/>
        <pt x="336" y="254" on="1"/>
        <pt x="321" y="244" on="0"/>
        <pt x="275" y="211" on="0"/>
        <pt x="252" y="188" on="1"/>
        <pt x="234" y="168" on="0"/>
        <pt x="209" y="140" on="0"/>
        <pt x="194" y="118" on="0"/>
        <pt x="190" y="106" on="1"/>
        <pt x="180" y="83" on="0"/>
        <pt x="158" y="29" on="0"/>
      </contour>
    </TTGlyph>
    <TTGlyph name="glyph00029" xMin="119" yMin="-50" xMax="451" yMax="612">
      <contour>
        <pt x="190" y="-50" on="1"/>
        <pt x="157" y="-45" on="0"/>
        <pt x="134" y="-6" on="0"/>
        <pt x="140" y="34" on="1"/>
        <pt x="146" y="53" on="0"/>
        <pt x="149" y="84" on="0"/>
        <pt x="156" y="88" on="1"/>
        <pt x="156" y="88" on="0"/>
        <pt x="159" y="94" on="0"/>
        <pt x="156" y="97" on="1"/>
        <pt x="156" y="110" on="0"/>
        <pt x="165" y="133" on="1"/>
        <pt x="167" y="139" on="0"/>
        <pt x="174" y="156" on="0"/>
        <pt x="174" y="156" on="1"/>
        <pt x="169" y="164" on="0"/>
        <pt x="179" y="174" on="0"/>
        <pt x="190" y="183" on="0"/>
        <pt x="185" y="189" on="1"/>
        <pt x="183" y="193" on="0"/>
        <pt x="197" y="222" on="0"/>
        <pt x="215" y="254" on="0"/>
        <pt x="218" y="263" on="1"/>
        <pt x="218" y="265" on="0"/>
        <pt x="228" y="289" on="0"/>
        <pt x="242" y="321" on="0"/>
        <pt x="255" y="347" on="0"/>
        <pt x="257" y="351" on="1"/>
        <pt x="267" y="356" on="0"/>
        <pt x="231" y="360" on="0"/>
        <pt x="211" y="359" on="1"/>
        <pt x="180" y="360" on="0"/>
        <pt x="143" y="364" on="0"/>
        <pt x="131" y="371" on="1"/>
        <pt x="119" y="385" on="0"/>
        <pt x="126" y="398" on="0"/>
        <pt x="146" y="399" on="1"/>
        <pt x="159" y="400" on="0"/>
        <pt x="174" y="400" on="0"/>
        <pt x="199" y="403" on="0"/>
        <pt x="226" y="406" on="1"/>
        <pt x="277" y="410" on="1"/>
        <pt x="280" y="427" on="1"/>
        <pt x="288" y="440" on="0"/>
        <pt x="299" y="461" on="0"/>
        <pt x="307" y="483" on="0"/>
        <pt x="309" y="495" on="1"/>
        <pt x="309" y="495" on="0"/>
        <pt x="327" y="528" on="0"/>
        <pt x="329" y="546" on="1"/>
        <pt x="341" y="566" on="0"/>
        <pt x="359" y="599" on="0"/>
        <pt x="361" y="603" on="1"/>
        <pt x="372" y="612" on="0"/>
        <pt x="381" y="612" on="0"/>
        <pt x="396" y="602" on="1"/>
        <pt x="405" y="597" on="0"/>
        <pt x="419" y="583" on="0"/>
        <pt x="423" y="568" on="0"/>
        <pt x="415" y="561" on="1"/>
        <pt x="413" y="557" on="0"/>
        <pt x="405" y="536" on="0"/>
        <pt x="403" y="529" on="1"/>
        <pt x="397" y="522" on="0"/>
        <pt x="380" y="491" on="0"/>
        <pt x="377" y="475" on="1"/>
        <pt x="369" y="458" on="0"/>
        <pt x="355" y="431" on="0"/>
        <pt x="351" y="431" on="1"/>
        <pt x="353" y="421" on="0"/>
        <pt x="373" y="422" on="0"/>
        <pt x="396" y="423" on="1"/>
        <pt x="415" y="425" on="0"/>
        <pt x="430" y="430" on="0"/>
        <pt x="440" y="425" on="1"/>
        <pt x="445" y="418" on="0"/>
        <pt x="451" y="400" on="0"/>
        <pt x="448" y="385" on="0"/>
        <pt x="441" y="382" on="1"/>
        <pt x="436" y="382" on="0"/>
        <pt x="405" y="371" on="0"/>
        <pt x="382" y="370" on="1"/>
        <pt x="329" y="365" on="1"/>
        <pt x="312" y="331" on="1"/>
        <pt x="305" y="318" on="0"/>
        <pt x="295" y="297" on="0"/>
        <pt x="293" y="295" on="1"/>
        <pt x="293" y="289" on="0"/>
        <pt x="280" y="265" on="0"/>
        <pt x="273" y="251" on="1"/>
        <pt x="267" y="234" on="0"/>
        <pt x="252" y="206" on="0"/>
        <pt x="252" y="206" on="1"/>
        <pt x="248" y="206" on="0"/>
        <pt x="248" y="200" on="1"/>
        <pt x="253" y="188" on="0"/>
        <pt x="245" y="182" on="1"/>
        <pt x="240" y="179" on="0"/>
        <pt x="233" y="168" on="0"/>
        <pt x="233" y="168" on="1"/>
        <pt x="237" y="164" on="0"/>
        <pt x="232" y="152" on="0"/>
        <pt x="228" y="145" on="1"/>
        <pt x="228" y="137" on="0"/>
        <pt x="219" y="107" on="0"/>
        <pt x="214" y="94" on="1"/>
        <pt x="215" y="76" on="0"/>
        <pt x="217" y="66" on="0"/>
        <pt x="221" y="67" on="1"/>
        <pt x="226" y="66" on="0"/>
        <pt x="234" y="68" on="0"/>
        <pt x="238" y="68" on="1"/>
        <pt x="252" y="74" on="0"/>
        <pt x="223" y="-2" on="1"/>
        <pt x="207" y="-27" on="0"/>
        <pt x="195" y="-50" on="0"/>
      </contour>
    </TTGlyph>
    <TTGlyph name="glyph00030" xMin="151" yMin="28" xMax="579" yMax="379">
      <contour>
        <pt x="390" y="29" on="1"/>
        <pt x="382" y="28" on="0"/>
        <pt x="356" y="48" on="0"/>
        <pt x="344" y="61" on="1"/>
        <pt x="335" y="75" on="0"/>
        <pt x="324" y="139" on="0"/>
        <pt x="322" y="173" on="1"/>
        <pt x="293" y="129" on="0"/>
        <pt x="247" y="73" on="0"/>
        <pt x="210" y="42" on="0"/>
        <pt x="194" y="37" on="1"/>
        <pt x="185" y="34" on="0"/>
        <pt x="173" y="41" on="0"/>
        <pt x="169" y="48" on="1"/>
        <pt x="165" y="55" on="0"/>
        <pt x="156" y="86" on="0"/>
        <pt x="157" y="103" on="1"/>
        <pt x="155" y="124" on="0"/>
        <pt x="152" y="178" on="0"/>
        <pt x="151" y="231" on="0"/>
        <pt x="153" y="273" on="0"/>
        <pt x="156" y="280" on="1"/>
        <pt x="155" y="284" on="0"/>
        <pt x="155" y="292" on="0"/>
        <pt x="155" y="292" on="1"/>
        <pt x="152" y="297" on="0"/>
        <pt x="153" y="332" on="0"/>
        <pt x="159" y="366" on="0"/>
        <pt x="161" y="370" on="1"/>
        <pt x="163" y="374" on="0"/>
        <pt x="170" y="378" on="0"/>
        <pt x="175" y="379" on="1"/>
        <pt x="190" y="376" on="0"/>
        <pt x="191" y="367" on="1"/>
        <pt x="194" y="365" on="0"/>
        <pt x="200" y="358" on="0"/>
        <pt x="204" y="359" on="1"/>
        <pt x="207" y="357" on="0"/>
        <pt x="210" y="325" on="0"/>
        <pt x="210" y="304" on="1"/>
        <pt x="209" y="294" on="0"/>
        <pt x="211" y="276" on="0"/>
        <pt x="209" y="269" on="1"/>
        <pt x="209" y="264" on="0"/>
        <pt x="211" y="231" on="0"/>
        <pt x="212" y="214" on="1"/>
        <pt x="212" y="201" on="0"/>
        <pt x="210" y="158" on="0"/>
        <pt x="210" y="144" on="1"/>
        <pt x="213" y="124" on="0"/>
        <pt x="218" y="113" on="0"/>
        <pt x="224" y="117" on="1"/>
        <pt x="230" y="119" on="0"/>
        <pt x="261" y="167" on="0"/>
        <pt x="282" y="203" on="1"/>
        <pt x="298" y="227" on="0"/>
        <pt x="321" y="262" on="0"/>
        <pt x="329" y="272" on="1"/>
        <pt x="332" y="296" on="0"/>
        <pt x="339" y="334" on="0"/>
        <pt x="340" y="342" on="1"/>
        <pt x="354" y="356" on="0"/>
        <pt x="376" y="361" on="0"/>
        <pt x="383" y="347" on="1"/>
        <pt x="393" y="343" on="0"/>
        <pt x="398" y="326" on="0"/>
        <pt x="396" y="315" on="1"/>
        <pt x="392" y="301" on="0"/>
        <pt x="385" y="275" on="0"/>
        <pt x="381" y="261" on="1"/>
        <pt x="377" y="247" on="0"/>
        <pt x="374" y="185" on="0"/>
        <pt x="376" y="124" on="0"/>
        <pt x="380" y="109" on="1"/>
        <pt x="381" y="100" on="0"/>
        <pt x="400" y="101" on="0"/>
        <pt x="415" y="114" on="1"/>
        <pt x="430" y="130" on="0"/>
        <pt x="467" y="179" on="0"/>
        <pt x="494" y="221" on="0"/>
        <pt x="494" y="226" on="1"/>
        <pt x="494" y="234" on="0"/>
        <pt x="502" y="253" on="0"/>
        <pt x="508" y="258" on="1"/>
        <pt x="513" y="264" on="0"/>
        <pt x="515" y="277" on="0"/>
        <pt x="518" y="284" on="1"/>
        <pt x="519" y="286" on="0"/>
        <pt x="523" y="294" on="0"/>
        <pt x="524" y="298" on="1"/>
        <pt x="521" y="305" on="0"/>
        <pt x="536" y="316" on="0"/>
        <pt x="538" y="322" on="1"/>
        <pt x="540" y="335" on="0"/>
        <pt x="559" y="340" on="0"/>
        <pt x="578" y="327" on="0"/>
        <pt x="579" y="314" on="1"/>
        <pt x="579" y="302" on="0"/>
        <pt x="564" y="256" on="0"/>
        <pt x="539" y="204" on="0"/>
        <pt x="524" y="183" on="1"/>
        <pt x="520" y="175" on="0"/>
        <pt x="513" y="159" on="0"/>
        <pt x="497" y="133" on="0"/>
        <pt x="477" y="108" on="1"/>
        <pt x="471" y="100" on="0"/>
        <pt x="456" y="83" on="0"/>
        <pt x="448" y="76" on="1"/>
        <pt x="431" y="54" on="0"/>
        <pt x="404" y="30" on="0"/>
      </contour>
    </TTGlyph>
    <TTGlyph name="glyph00031" xMin="100" yMin="-110" xMax="689" yMax="665">
      <contour>
        <pt x="332" y="-106" on="1"/>
        <pt x="326" y="-110" on="0"/>
        <pt x="311" y="-98" on="0"/>
        <pt x="297" y="-82" on="1"/>
        <pt x="290" y="-74" on="0"/>
        <pt x="286" y="-56" on="0"/>
        <pt x="289" y="-31" on="1"/>
        <pt x="293" y="-20" on="0"/>
        <pt x="294" y="0" on="0"/>
        <pt x="294" y="4" on="1"/>
        <pt x="294" y="10" on="0"/>
        <pt x="301" y="54" on="0"/>
        <pt x="309" y="103" on="0"/>
        <pt x="312" y="116" on="1"/>
        <pt x="312" y="117" on="0"/>
        <pt x="314" y="125" on="0"/>
        <pt x="315" y="128" on="1"/>
        <pt x="317" y="137" on="0"/>
        <pt x="324" y="167" on="0"/>
        <pt x="327" y="189" on="1"/>
        <pt x="332" y="208" on="0"/>
        <pt x="342" y="247" on="0"/>
        <pt x="344" y="260" on="1"/>
        <pt x="332" y="260" on="0"/>
        <pt x="288" y="256" on="0"/>
        <pt x="241" y="249" on="0"/>
        <pt x="208" y="244" on="0"/>
        <pt x="206" y="242" on="1"/>
        <pt x="202" y="240" on="0"/>
        <pt x="189" y="209" on="0"/>
        <pt x="175" y="164" on="0"/>
        <pt x="171" y="140" on="1"/>
        <pt x="159" y="94" on="0"/>
        <pt x="157" y="-3" on="0"/>
        <pt x="163" y="-26" on="1"/>
        <pt x="169" y="-50" on="0"/>
        <pt x="164" y="-80" on="0"/>
        <pt x="152" y="-85" on="1"/>
        <pt x="133" y="-86" on="0"/>
        <pt x="104" y="-27" on="0"/>
        <pt x="104" y="22" on="1"/>
        <pt x="100" y="63" on="0"/>
        <pt x="122" y="190" on="0"/>
        <pt x="144" y="269" on="1"/>
        <pt x="152" y="296" on="0"/>
        <pt x="180" y="370" on="0"/>
        <pt x="211" y="442" on="0"/>
        <pt x="235" y="491" on="0"/>
        <pt x="238" y="494" on="1"/>
        <pt x="244" y="492" on="0"/>
        <pt x="244" y="503" on="1"/>
        <pt x="244" y="505" on="0"/>
        <pt x="260" y="531" on="0"/>
        <pt x="267" y="546" on="1"/>
        <pt x="280" y="565" on="0"/>
        <pt x="316" y="602" on="0"/>
        <pt x="355" y="631" on="0"/>
        <pt x="371" y="637" on="1"/>
        <pt x="386" y="643" on="0"/>
        <pt x="401" y="643" on="1"/>
        <pt x="426" y="643" on="0"/>
        <pt x="475" y="600" on="0"/>
        <pt x="485" y="574" on="1"/>
        <pt x="502" y="594" on="0"/>
        <pt x="544" y="636" on="0"/>
        <pt x="557" y="646" on="1"/>
        <pt x="579" y="657" on="0"/>
        <pt x="605" y="665" on="0"/>
        <pt x="626" y="665" on="1"/>
        <pt x="645" y="665" on="0"/>
        <pt x="658" y="656" on="0"/>
        <pt x="671" y="644" on="1"/>
        <pt x="685" y="629" on="0"/>
        <pt x="689" y="619" on="0"/>
        <pt x="689" y="605" on="1"/>
        <pt x="687" y="595" on="0"/>
        <pt x="676" y="566" on="0"/>
        <pt x="662" y="537" on="0"/>
        <pt x="649" y="517" on="0"/>
        <pt x="645" y="517" on="1"/>
        <pt x="622" y="510" on="0"/>
        <pt x="622" y="541" on="1"/>
        <pt x="622" y="548" on="0"/>
        <pt x="615" y="561" on="0"/>
        <pt x="615" y="561" on="1"/>
        <pt x="615" y="564" on="0"/>
        <pt x="618" y="579" on="0"/>
        <pt x="622" y="586" on="1"/>
        <pt x="627" y="596" on="0"/>
        <pt x="622" y="606" on="0"/>
        <pt x="611" y="603" on="1"/>
        <pt x="608" y="601" on="0"/>
        <pt x="582" y="581" on="0"/>
        <pt x="553" y="556" on="0"/>
        <pt x="531" y="534" on="0"/>
        <pt x="531" y="531" on="1"/>
        <pt x="531" y="531" on="0"/>
        <pt x="523" y="514" on="0"/>
        <pt x="512" y="501" on="1"/>
        <pt x="505" y="491" on="0"/>
        <pt x="494" y="472" on="0"/>
        <pt x="494" y="470" on="1"/>
        <pt x="494" y="466" on="0"/>
        <pt x="493" y="457" on="0"/>
        <pt x="488" y="457" on="1"/>
        <pt x="488" y="457" on="0"/>
        <pt x="482" y="439" on="0"/>
        <pt x="474" y="425" on="1"/>
        <pt x="470" y="415" on="0"/>
        <pt x="458" y="394" on="0"/>
        <pt x="454" y="390" on="1"/>
        <pt x="455" y="390" on="1"/>
        <pt x="455" y="390" on="0"/>
        <pt x="446" y="365" on="0"/>
        <pt x="436" y="338" on="0"/>
        <pt x="436" y="336" on="1"/>
        <pt x="436" y="332" on="0"/>
        <pt x="465" y="332" on="0"/>
        <pt x="505" y="339" on="0"/>
        <pt x="521" y="343" on="1"/>
        <pt x="535" y="347" on="0"/>
        <pt x="545" y="347" on="0"/>
        <pt x="560" y="343" on="1"/>
        <pt x="568" y="338" on="0"/>
        <pt x="579" y="319" on="0"/>
        <pt x="584" y="302" on="0"/>
        <pt x="581" y="298" on="1"/>
        <pt x="580" y="294" on="0"/>
        <pt x="538" y="280" on="0"/>
        <pt x="517" y="276" on="1"/>
        <pt x="499" y="272" on="0"/>
        <pt x="448" y="262" on="0"/>
        <pt x="408" y="254" on="0"/>
        <pt x="408" y="251" on="1"/>
        <pt x="404" y="251" on="0"/>
        <pt x="398" y="242" on="0"/>
        <pt x="398" y="239" on="1"/>
        <pt x="398" y="225" on="0"/>
        <pt x="394" y="218" on="1"/>
        <pt x="392" y="212" on="0"/>
        <pt x="382" y="176" on="0"/>
        <pt x="371" y="132" on="0"/>
        <pt x="364" y="96" on="0"/>
        <pt x="364" y="90" on="1"/>
        <pt x="358" y="83" on="0"/>
        <pt x="356" y="62" on="0"/>
        <pt x="356" y="54" on="1"/>
        <pt x="352" y="46" on="0"/>
        <pt x="350" y="33" on="0"/>
        <pt x="350" y="29" on="1"/>
        <pt x="350" y="28" on="0"/>
        <pt x="350" y="22" on="0"/>
        <pt x="349" y="19" on="1"/>
        <pt x="348" y="9" on="0"/>
        <pt x="345" y="-24" on="0"/>
        <pt x="345" y="-40" on="1"/>
        <pt x="342" y="-69" on="1"/>
        <pt x="341" y="-82" on="0"/>
        <pt x="337" y="-101" on="0"/>
      </contour>
      <contour>
        <pt x="241" y="304" on="1"/>
        <pt x="245" y="304" on="0"/>
        <pt x="289" y="309" on="0"/>
        <pt x="346" y="317" on="0"/>
        <pt x="369" y="320" on="1"/>
        <pt x="375" y="331" on="1"/>
        <pt x="390" y="373" on="0"/>
        <pt x="410" y="430" on="0"/>
        <pt x="420" y="451" on="1"/>
        <pt x="422" y="460" on="1"/>
        <pt x="422" y="462" on="0"/>
        <pt x="431" y="482" on="0"/>
        <pt x="431" y="492" on="1"/>
        <pt x="438" y="526" on="0"/>
        <pt x="439" y="564" on="0"/>
        <pt x="424" y="581" on="0"/>
        <pt x="406" y="581" on="1"/>
        <pt x="401" y="582" on="0"/>
        <pt x="380" y="574" on="0"/>
        <pt x="363" y="563" on="0"/>
        <pt x="363" y="558" on="1"/>
        <pt x="363" y="554" on="1"/>
        <pt x="360" y="555" on="0"/>
        <pt x="329" y="520" on="0"/>
        <pt x="292" y="471" on="0"/>
        <pt x="280" y="451" on="1"/>
        <pt x="272" y="434" on="0"/>
        <pt x="250" y="374" on="0"/>
        <pt x="233" y="330" on="1"/>
        <pt x="225" y="306" on="1"/>
      </contour>
    </TTGlyph>
    <TTGlyph name="glyph00032" xMin="100" yMin="-110" xMax="754" yMax="665">
      <contour>
        <pt x="332" y="-106" on="1"/>
        <pt x="326" y="-110" on="0"/>
        <pt x="311" y="-98" on="0"/>
        <pt x="297" y="-82" on="1"/>
        <pt x="290" y="-74" on="0"/>
        <pt x="286" y="-56" on="0"/>
        <pt x="289" y="-31" on="1"/>
        <pt x="293" y="-20" on="0"/>
        <pt x="294" y="0" on="0"/>
        <pt x="294" y="4" on="1"/>
        <pt x="294" y="10" on="0"/>
        <pt x="301" y="54" on="0"/>
        <pt x="309" y="103" on="0"/>
        <pt x="312" y="116" on="1"/>
        <pt x="312" y="117" on="0"/>
        <pt x="314" y="125" on="0"/>
        <pt x="315" y="128" on="1"/>
        <pt x="317" y="137" on="0"/>
        <pt x="324" y="167" on="0"/>
        <pt x="327" y="189" on="1"/>
        <pt x="332" y="208" on="0"/>
        <pt x="342" y="247" on="0"/>
        <pt x="344" y="260" on="1"/>
        <pt x="332" y="260" on="0"/>
        <pt x="288" y="256" on="0"/>
        <pt x="241" y="249" on="0"/>
        <pt x="208" y="244" on="0"/>
        <pt x="206" y="242" on="1"/>
        <pt x="202" y="240" on="0"/>
        <pt x="189" y="209" on="0"/>
        <pt x="175" y="164" on="0"/>
        <pt x="171" y="140" on="1"/>
        <pt x="163" y="109" on="0"/>
        <pt x="157" y="44" on="0"/>
        <pt x="159" y="-10" on="0"/>
        <pt x="163" y="-26" on="1"/>
        <pt x="169" y="-50" on="0"/>
        <pt x="164" y="-80" on="0"/>
        <pt x="152" y="-85" on="1"/>
        <pt x="133" y="-86" on="0"/>
        <pt x="104" y="-27" on="0"/>
        <pt x="104" y="22" on="1"/>
        <pt x="100" y="63" on="0"/>
        <pt x="122" y="190" on="0"/>
        <pt x="144" y="269" on="1"/>
        <pt x="152" y="296" on="0"/>
        <pt x="180" y="370" on="0"/>
        <pt x="211" y="442" on="0"/>
        <pt x="235" y="491" on="0"/>
        <pt x="238" y="494" on="1"/>
        <pt x="243" y="493" on="0"/>
        <pt x="244" y="499" on="0"/>
        <pt x="244" y="503" on="1"/>
        <pt x="244" y="505" on="0"/>
        <pt x="251" y="517" on="0"/>
        <pt x="262" y="536" on="0"/>
        <pt x="267" y="546" on="1"/>
        <pt x="287" y="574" on="0"/>
        <pt x="346" y="627" on="0"/>
        <pt x="371" y="637" on="1"/>
        <pt x="386" y="643" on="0"/>
        <pt x="401" y="643" on="1"/>
        <pt x="426" y="643" on="0"/>
        <pt x="475" y="600" on="0"/>
        <pt x="485" y="574" on="1"/>
        <pt x="502" y="594" on="0"/>
        <pt x="544" y="636" on="0"/>
        <pt x="557" y="646" on="1"/>
        <pt x="579" y="657" on="0"/>
        <pt x="605" y="665" on="0"/>
        <pt x="626" y="665" on="1"/>
        <pt x="645" y="665" on="0"/>
        <pt x="658" y="656" on="0"/>
        <pt x="671" y="644" on="1"/>
        <pt x="685" y="629" on="0"/>
        <pt x="689" y="619" on="0"/>
        <pt x="689" y="605" on="1"/>
        <pt x="687" y="595" on="0"/>
        <pt x="676" y="566" on="0"/>
        <pt x="662" y="537" on="0"/>
        <pt x="649" y="517" on="0"/>
        <pt x="645" y="517" on="1"/>
        <pt x="633" y="513" on="0"/>
        <pt x="622" y="526" on="0"/>
        <pt x="622" y="541" on="1"/>
        <pt x="622" y="548" on="0"/>
        <pt x="615" y="561" on="0"/>
        <pt x="615" y="561" on="1"/>
        <pt x="615" y="564" on="0"/>
        <pt x="618" y="579" on="0"/>
        <pt x="622" y="586" on="1"/>
        <pt x="627" y="596" on="0"/>
        <pt x="622" y="606" on="0"/>
        <pt x="611" y="603" on="1"/>
        <pt x="608" y="601" on="0"/>
        <pt x="582" y="581" on="0"/>
        <pt x="553" y="556" on="0"/>
        <pt x="531" y="534" on="0"/>
        <pt x="531" y="531" on="1"/>
        <pt x="531" y="531" on="0"/>
        <pt x="523" y="514" on="0"/>
        <pt x="512" y="501" on="1"/>
        <pt x="505" y="491" on="0"/>
        <pt x="494" y="472" on="0"/>
        <pt x="494" y="470" on="1"/>
        <pt x="494" y="466" on="0"/>
        <pt x="493" y="457" on="0"/>
        <pt x="488" y="457" on="1"/>
        <pt x="488" y="457" on="0"/>
        <pt x="482" y="439" on="0"/>
        <pt x="474" y="425" on="1"/>
        <pt x="470" y="415" on="0"/>
        <pt x="458" y="394" on="0"/>
        <pt x="454" y="390" on="1"/>
        <pt x="455" y="390" on="1"/>
        <pt x="455" y="390" on="0"/>
        <pt x="446" y="365" on="0"/>
        <pt x="436" y="338" on="0"/>
        <pt x="436" y="336" on="1"/>
        <pt x="436" y="333" on="0"/>
        <pt x="453" y="332" on="0"/>
        <pt x="480" y="334" on="0"/>
        <pt x="509" y="340" on="0"/>
        <pt x="521" y="343" on="1"/>
        <pt x="535" y="347" on="0"/>
        <pt x="545" y="347" on="0"/>
        <pt x="560" y="343" on="1"/>
        <pt x="572" y="336" on="0"/>
        <pt x="585" y="303" on="0"/>
        <pt x="581" y="298" on="1"/>
        <pt x="580" y="294" on="0"/>
        <pt x="538" y="280" on="0"/>
        <pt x="517" y="276" on="1"/>
        <pt x="499" y="272" on="0"/>
        <pt x="448" y="262" on="0"/>
        <pt x="408" y="254" on="0"/>
        <pt x="408" y="251" on="1"/>
        <pt x="404" y="251" on="0"/>
        <pt x="398" y="242" on="0"/>
        <pt x="398" y="239" on="1"/>
        <pt x="398" y="225" on="0"/>
        <pt x="394" y="218" on="1"/>
        <pt x="392" y="212" on="0"/>
        <pt x="382" y="176" on="0"/>
        <pt x="371" y="132" on="0"/>
        <pt x="364" y="96" on="0"/>
        <pt x="364" y="90" on="1"/>
        <pt x="358" y="83" on="0"/>
        <pt x="356" y="62" on="0"/>
        <pt x="356" y="54" on="1"/>
        <pt x="352" y="46" on="0"/>
        <pt x="350" y="33" on="0"/>
        <pt x="350" y="29" on="1"/>
        <pt x="350" y="28" on="0"/>
        <pt x="350" y="22" on="0"/>
        <pt x="349" y="19" on="1"/>
        <pt x="348" y="9" on="0"/>
        <pt x="345" y="-24" on="0"/>
        <pt x="345" y="-40" on="1"/>
        <pt x="342" y="-69" on="1"/>
        <pt x="341" y="-82" on="0"/>
        <pt x="337" y="-101" on="0"/>
      </contour>
      <contour>
        <pt x="241" y="304" on="1"/>
        <pt x="245" y="304" on="0"/>
        <pt x="289" y="309" on="0"/>
        <pt x="346" y="317" on="0"/>
        <pt x="369" y="320" on="1"/>
        <pt x="375" y="331" on="1"/>
        <pt x="390" y="373" on="0"/>
        <pt x="410" y="430" on="0"/>
        <pt x="420" y="451" on="1"/>
        <pt x="422" y="460" on="1"/>
        <pt x="422" y="462" on="0"/>
        <pt x="431" y="482" on="0"/>
        <pt x="431" y="492" on="1"/>
        <pt x="438" y="526" on="0"/>
        <pt x="439" y="564" on="0"/>
        <pt x="424" y="581" on="0"/>
        <pt x="406" y="581" on="1"/>
        <pt x="401" y="582" on="0"/>
        <pt x="380" y="574" on="0"/>
        <pt x="363" y="563" on="0"/>
        <pt x="363" y="558" on="1"/>
        <pt x="363" y="554" on="1"/>
        <pt x="360" y="555" on="0"/>
        <pt x="329" y="520" on="0"/>
        <pt x="292" y="471" on="0"/>
        <pt x="280" y="451" on="1"/>
        <pt x="272" y="434" on="0"/>
        <pt x="250" y="374" on="0"/>
        <pt x="233" y="330" on="1"/>
        <pt x="225" y="306" on="1"/>
      </contour>
      <contour>
        <pt x="631" y="31" on="1"/>
        <pt x="616" y="33" on="0"/>
        <pt x="595" y="72" on="0"/>
        <pt x="593" y="88" on="1"/>
        <pt x="594" y="96" on="0"/>
        <pt x="597" y="126" on="0"/>
        <pt x="599" y="142" on="1"/>
        <pt x="603" y="161" on="0"/>
        <pt x="617" y="216" on="0"/>
        <pt x="632" y="272" on="0"/>
        <pt x="644" y="312" on="0"/>
        <pt x="646" y="316" on="1"/>
        <pt x="649" y="321" on="0"/>
        <pt x="662" y="320" on="0"/>
        <pt x="676" y="313" on="0"/>
        <pt x="680" y="308" on="1"/>
        <pt x="686" y="300" on="0"/>
        <pt x="689" y="278" on="0"/>
        <pt x="680" y="236" on="0"/>
        <pt x="668" y="195" on="1"/>
        <pt x="657" y="155" on="0"/>
        <pt x="646" y="106" on="0"/>
        <pt x="647" y="79" on="1"/>
        <pt x="644" y="57" on="0"/>
        <pt x="641" y="36" on="0"/>
        <pt x="636" y="31" on="0"/>
      </contour>
      <contour>
        <pt x="732" y="395" on="1"/>
        <pt x="730" y="393" on="0"/>
        <pt x="725" y="392" on="0"/>
        <pt x="718" y="395" on="0"/>
        <pt x="713" y="398" on="1"/>
        <pt x="706" y="399" on="0"/>
        <pt x="685" y="416" on="0"/>
        <pt x="670" y="435" on="0"/>
        <pt x="670" y="437" on="1"/>
        <pt x="669" y="447" on="0"/>
        <pt x="674" y="478" on="0"/>
        <pt x="690" y="503" on="0"/>
        <pt x="705" y="504" on="1"/>
        <pt x="709" y="504" on="0"/>
        <pt x="715" y="502" on="0"/>
        <pt x="730" y="496" on="1"/>
        <pt x="738" y="481" on="0"/>
        <pt x="754" y="444" on="0"/>
        <pt x="752" y="409" on="0"/>
      </contour>
    </TTGlyph>
    <TTGlyph name="glyph00033" xMin="100" yMin="-110" xMax="825" yMax="665">
      <contour>
        <pt x="332" y="-106" on="1"/>
        <pt x="326" y="-110" on="0"/>
        <pt x="311" y="-98" on="0"/>
        <pt x="297" y="-82" on="1"/>
        <pt x="290" y="-74" on="0"/>
        <pt x="286" y="-56" on="0"/>
        <pt x="289" y="-31" on="1"/>
        <pt x="293" y="-20" on="0"/>
        <pt x="294" y="0" on="0"/>
        <pt x="294" y="4" on="1"/>
        <pt x="294" y="10" on="0"/>
        <pt x="301" y="54" on="0"/>
        <pt x="309" y="103" on="0"/>
        <pt x="312" y="116" on="1"/>
        <pt x="312" y="117" on="0"/>
        <pt x="314" y="125" on="0"/>
        <pt x="315" y="128" on="1"/>
        <pt x="317" y="137" on="0"/>
        <pt x="324" y="167" on="0"/>
        <pt x="327" y="189" on="1"/>
        <pt x="332" y="208" on="0"/>
        <pt x="342" y="247" on="0"/>
        <pt x="344" y="260" on="1"/>
        <pt x="332" y="260" on="0"/>
        <pt x="288" y="256" on="0"/>
        <pt x="241" y="249" on="0"/>
        <pt x="208" y="244" on="0"/>
        <pt x="206" y="242" on="1"/>
        <pt x="202" y="240" on="0"/>
        <pt x="189" y="209" on="0"/>
        <pt x="175" y="164" on="0"/>
        <pt x="171" y="140" on="1"/>
        <pt x="159" y="94" on="0"/>
        <pt x="157" y="-3" on="0"/>
        <pt x="163" y="-26" on="1"/>
        <pt x="169" y="-50" on="0"/>
        <pt x="164" y="-80" on="0"/>
        <pt x="152" y="-85" on="1"/>
        <pt x="133" y="-86" on="0"/>
        <pt x="104" y="-27" on="0"/>
        <pt x="104" y="22" on="1"/>
        <pt x="100" y="63" on="0"/>
        <pt x="122" y="190" on="0"/>
        <pt x="144" y="269" on="1"/>
        <pt x="152" y="296" on="0"/>
        <pt x="180" y="370" on="0"/>
        <pt x="211" y="442" on="0"/>
        <pt x="235" y="491" on="0"/>
        <pt x="238" y="494" on="1"/>
        <pt x="244" y="492" on="0"/>
        <pt x="244" y="503" on="1"/>
        <pt x="244" y="505" on="0"/>
        <pt x="260" y="531" on="0"/>
        <pt x="267" y="546" on="1"/>
        <pt x="280" y="565" on="0"/>
        <pt x="316" y="602" on="0"/>
        <pt x="355" y="631" on="0"/>
        <pt x="371" y="637" on="1"/>
        <pt x="386" y="643" on="0"/>
        <pt x="401" y="643" on="1"/>
        <pt x="426" y="643" on="0"/>
        <pt x="475" y="600" on="0"/>
        <pt x="485" y="574" on="1"/>
        <pt x="502" y="594" on="0"/>
        <pt x="544" y="636" on="0"/>
        <pt x="557" y="646" on="1"/>
        <pt x="579" y="657" on="0"/>
        <pt x="605" y="665" on="0"/>
        <pt x="626" y="665" on="1"/>
        <pt x="645" y="665" on="0"/>
        <pt x="658" y="656" on="0"/>
        <pt x="671" y="644" on="1"/>
        <pt x="685" y="629" on="0"/>
        <pt x="689" y="619" on="0"/>
        <pt x="689" y="605" on="1"/>
        <pt x="687" y="595" on="0"/>
        <pt x="676" y="566" on="0"/>
        <pt x="662" y="537" on="0"/>
        <pt x="649" y="517" on="0"/>
        <pt x="645" y="517" on="1"/>
        <pt x="622" y="510" on="0"/>
        <pt x="622" y="541" on="1"/>
        <pt x="622" y="548" on="0"/>
        <pt x="615" y="561" on="0"/>
        <pt x="615" y="561" on="1"/>
        <pt x="615" y="564" on="0"/>
        <pt x="618" y="579" on="0"/>
        <pt x="622" y="586" on="1"/>
        <pt x="627" y="596" on="0"/>
        <pt x="622" y="606" on="0"/>
        <pt x="611" y="603" on="1"/>
        <pt x="608" y="601" on="0"/>
        <pt x="582" y="581" on="0"/>
        <pt x="553" y="556" on="0"/>
        <pt x="531" y="534" on="0"/>
        <pt x="531" y="531" on="1"/>
        <pt x="531" y="531" on="0"/>
        <pt x="523" y="514" on="0"/>
        <pt x="512" y="501" on="1"/>
        <pt x="505" y="491" on="0"/>
        <pt x="494" y="472" on="0"/>
        <pt x="494" y="470" on="1"/>
        <pt x="494" y="466" on="0"/>
        <pt x="493" y="457" on="0"/>
        <pt x="488" y="457" on="1"/>
        <pt x="488" y="457" on="0"/>
        <pt x="482" y="439" on="0"/>
        <pt x="474" y="425" on="1"/>
        <pt x="470" y="415" on="0"/>
        <pt x="458" y="394" on="0"/>
        <pt x="454" y="390" on="1"/>
        <pt x="455" y="390" on="1"/>
        <pt x="455" y="390" on="0"/>
        <pt x="446" y="365" on="0"/>
        <pt x="436" y="338" on="0"/>
        <pt x="436" y="336" on="1"/>
        <pt x="436" y="332" on="0"/>
        <pt x="465" y="332" on="0"/>
        <pt x="505" y="339" on="0"/>
        <pt x="521" y="343" on="1"/>
        <pt x="535" y="347" on="0"/>
        <pt x="545" y="347" on="0"/>
        <pt x="560" y="343" on="1"/>
        <pt x="568" y="338" on="0"/>
        <pt x="579" y="319" on="0"/>
        <pt x="584" y="302" on="0"/>
        <pt x="581" y="298" on="1"/>
        <pt x="580" y="294" on="0"/>
        <pt x="538" y="280" on="0"/>
        <pt x="517" y="276" on="1"/>
        <pt x="499" y="272" on="0"/>
        <pt x="448" y="262" on="0"/>
        <pt x="408" y="254" on="0"/>
        <pt x="408" y="251" on="1"/>
        <pt x="404" y="251" on="0"/>
        <pt x="398" y="242" on="0"/>
        <pt x="398" y="239" on="1"/>
        <pt x="398" y="225" on="0"/>
        <pt x="394" y="218" on="1"/>
        <pt x="392" y="212" on="0"/>
        <pt x="382" y="176" on="0"/>
        <pt x="371" y="132" on="0"/>
        <pt x="364" y="96" on="0"/>
        <pt x="364" y="90" on="1"/>
        <pt x="358" y="83" on="0"/>
        <pt x="356" y="62" on="0"/>
        <pt x="356" y="54" on="1"/>
        <pt x="352" y="46" on="0"/>
        <pt x="350" y="33" on="0"/>
        <pt x="350" y="29" on="1"/>
        <pt x="350" y="28" on="0"/>
        <pt x="350" y="22" on="0"/>
        <pt x="349" y="19" on="1"/>
        <pt x="348" y="9" on="0"/>
        <pt x="345" y="-24" on="0"/>
        <pt x="345" y="-40" on="1"/>
        <pt x="342" y="-69" on="1"/>
        <pt x="341" y="-82" on="0"/>
        <pt x="337" y="-101" on="0"/>
      </contour>
      <contour>
        <pt x="241" y="304" on="1"/>
        <pt x="245" y="304" on="0"/>
        <pt x="289" y="309" on="0"/>
        <pt x="346" y="317" on="0"/>
        <pt x="369" y="320" on="1"/>
        <pt x="375" y="331" on="1"/>
        <pt x="390" y="373" on="0"/>
        <pt x="410" y="430" on="0"/>
        <pt x="420" y="451" on="1"/>
        <pt x="422" y="460" on="1"/>
        <pt x="422" y="462" on="0"/>
        <pt x="431" y="482" on="0"/>
        <pt x="431" y="492" on="1"/>
        <pt x="438" y="526" on="0"/>
        <pt x="439" y="564" on="0"/>
        <pt x="424" y="581" on="0"/>
        <pt x="406" y="581" on="1"/>
        <pt x="401" y="582" on="0"/>
        <pt x="380" y="574" on="0"/>
        <pt x="363" y="563" on="0"/>
        <pt x="363" y="558" on="1"/>
        <pt x="363" y="554" on="1"/>
        <pt x="360" y="555" on="0"/>
        <pt x="329" y="520" on="0"/>
        <pt x="292" y="471" on="0"/>
        <pt x="280" y="451" on="1"/>
        <pt x="272" y="434" on="0"/>
        <pt x="250" y="374" on="0"/>
        <pt x="233" y="330" on="1"/>
        <pt x="225" y="306" on="1"/>
      </contour>
      <contour>
        <pt x="602" y="-9" on="1"/>
        <pt x="589" y="-4" on="0"/>
        <pt x="577" y="17" on="0"/>
        <pt x="576" y="37" on="1"/>
        <pt x="576" y="49" on="0"/>
        <pt x="584" y="89" on="0"/>
        <pt x="589" y="115" on="1"/>
        <pt x="589" y="117" on="0"/>
        <pt x="590" y="122" on="0"/>
        <pt x="590" y="123" on="1"/>
        <pt x="591" y="127" on="0"/>
        <pt x="594" y="143" on="0"/>
        <pt x="596" y="152" on="0"/>
        <pt x="596" y="147" on="1"/>
        <pt x="603" y="174" on="1"/>
        <pt x="608" y="192" on="0"/>
        <pt x="618" y="228" on="0"/>
        <pt x="626" y="255" on="0"/>
        <pt x="627" y="257" on="1"/>
        <pt x="627" y="257" on="0"/>
        <pt x="635" y="280" on="0"/>
        <pt x="639" y="291" on="1"/>
        <pt x="656" y="338" on="0"/>
        <pt x="684" y="403" on="0"/>
        <pt x="695" y="418" on="1"/>
        <pt x="696" y="421" on="0"/>
        <pt x="700" y="430" on="0"/>
        <pt x="701" y="433" on="1"/>
        <pt x="702" y="441" on="0"/>
        <pt x="705" y="450" on="0"/>
        <pt x="708" y="454" on="1"/>
        <pt x="710" y="458" on="0"/>
        <pt x="718" y="471" on="0"/>
        <pt x="723" y="481" on="1"/>
        <pt x="727" y="492" on="1"/>
        <pt x="733" y="505" on="0"/>
        <pt x="751" y="537" on="0"/>
        <pt x="755" y="544" on="1"/>
        <pt x="759" y="553" on="0"/>
        <pt x="775" y="578" on="0"/>
        <pt x="779" y="582" on="1"/>
        <pt x="778" y="583" on="1"/>
        <pt x="783" y="592" on="0"/>
        <pt x="798" y="595" on="0"/>
        <pt x="807" y="595" on="1"/>
        <pt x="821" y="595" on="0"/>
        <pt x="825" y="587" on="0"/>
        <pt x="825" y="573" on="1"/>
        <pt x="825" y="558" on="0"/>
        <pt x="824" y="545" on="0"/>
        <pt x="816" y="537" on="1"/>
        <pt x="817" y="537" on="1"/>
        <pt x="819" y="539" on="0"/>
        <pt x="813" y="526" on="0"/>
        <pt x="811" y="523" on="1"/>
        <pt x="809" y="518" on="0"/>
        <pt x="804" y="506" on="0"/>
        <pt x="801" y="503" on="1"/>
        <pt x="798" y="499" on="0"/>
        <pt x="775" y="454" on="0"/>
        <pt x="746" y="394" on="0"/>
        <pt x="720" y="338" on="0"/>
        <pt x="714" y="323" on="1"/>
        <pt x="709" y="308" on="1"/>
        <pt x="707" y="304" on="0"/>
        <pt x="707" y="302" on="1"/>
        <pt x="704" y="295" on="0"/>
        <pt x="698" y="281" on="0"/>
        <pt x="695" y="276" on="1"/>
        <pt x="678" y="218" on="1"/>
        <pt x="673" y="197" on="1"/>
        <pt x="664" y="175" on="1"/>
        <pt x="658" y="156" on="1"/>
        <pt x="656" y="150" on="0"/>
        <pt x="654" y="140" on="0"/>
        <pt x="651" y="137" on="1"/>
        <pt x="651" y="136" on="0"/>
        <pt x="650" y="133" on="0"/>
        <pt x="650" y="132" on="1"/>
        <pt x="646" y="116" on="0"/>
        <pt x="636" y="58" on="0"/>
        <pt x="634" y="26" on="1"/>
        <pt x="634" y="25" on="0"/>
        <pt x="633" y="23" on="0"/>
        <pt x="633" y="22" on="1"/>
        <pt x="630" y="1" on="0"/>
        <pt x="616" y="-13" on="0"/>
      </contour>
    </TTGlyph>
    <TTGlyph name="glyph00034" xMin="77" yMin="-110" xMax="545" yMax="665">
      <contour>
        <pt x="123" y="-106" on="1"/>
        <pt x="117" y="-110" on="0"/>
        <pt x="102" y="-98" on="0"/>
        <pt x="88" y="-82" on="1"/>
        <pt x="81" y="-74" on="0"/>
        <pt x="77" y="-56" on="0"/>
        <pt x="80" y="-31" on="1"/>
        <pt x="84" y="-20" on="0"/>
        <pt x="85" y="0" on="0"/>
        <pt x="85" y="4" on="1"/>
        <pt x="85" y="10" on="0"/>
        <pt x="92" y="54" on="0"/>
        <pt x="100" y="103" on="0"/>
        <pt x="103" y="116" on="1"/>
        <pt x="103" y="117" on="0"/>
        <pt x="105" y="125" on="0"/>
        <pt x="106" y="128" on="1"/>
        <pt x="108" y="137" on="0"/>
        <pt x="115" y="167" on="0"/>
        <pt x="118" y="189" on="1"/>
        <pt x="126" y="214" on="0"/>
        <pt x="137" y="263" on="0"/>
        <pt x="137" y="272" on="1"/>
        <pt x="137" y="290" on="0"/>
        <pt x="151" y="298" on="1"/>
        <pt x="152" y="303" on="0"/>
        <pt x="162" y="324" on="0"/>
        <pt x="166" y="331" on="1"/>
        <pt x="186" y="388" on="0"/>
        <pt x="212" y="455" on="0"/>
        <pt x="226" y="480" on="1"/>
        <pt x="232" y="497" on="0"/>
        <pt x="247" y="533" on="0"/>
        <pt x="255" y="543" on="1"/>
        <pt x="260" y="556" on="0"/>
        <pt x="296" y="597" on="0"/>
        <pt x="336" y="636" on="0"/>
        <pt x="348" y="646" on="1"/>
        <pt x="370" y="657" on="0"/>
        <pt x="396" y="665" on="0"/>
        <pt x="417" y="665" on="1"/>
        <pt x="436" y="665" on="0"/>
        <pt x="449" y="656" on="0"/>
        <pt x="462" y="644" on="1"/>
        <pt x="476" y="629" on="0"/>
        <pt x="480" y="619" on="0"/>
        <pt x="480" y="605" on="1"/>
        <pt x="478" y="595" on="0"/>
        <pt x="467" y="566" on="0"/>
        <pt x="453" y="537" on="0"/>
        <pt x="440" y="517" on="0"/>
        <pt x="436" y="517" on="1"/>
        <pt x="424" y="513" on="0"/>
        <pt x="413" y="526" on="0"/>
        <pt x="413" y="541" on="1"/>
        <pt x="413" y="548" on="0"/>
        <pt x="406" y="561" on="0"/>
        <pt x="406" y="561" on="1"/>
        <pt x="406" y="564" on="0"/>
        <pt x="409" y="579" on="0"/>
        <pt x="413" y="586" on="1"/>
        <pt x="418" y="596" on="0"/>
        <pt x="413" y="606" on="0"/>
        <pt x="402" y="603" on="1"/>
        <pt x="399" y="601" on="0"/>
        <pt x="373" y="581" on="0"/>
        <pt x="344" y="556" on="0"/>
        <pt x="322" y="534" on="0"/>
        <pt x="322" y="531" on="1"/>
        <pt x="322" y="531" on="0"/>
        <pt x="314" y="514" on="0"/>
        <pt x="303" y="501" on="1"/>
        <pt x="296" y="491" on="0"/>
        <pt x="285" y="472" on="0"/>
        <pt x="285" y="470" on="1"/>
        <pt x="285" y="466" on="0"/>
        <pt x="284" y="457" on="0"/>
        <pt x="279" y="457" on="1"/>
        <pt x="279" y="457" on="0"/>
        <pt x="273" y="439" on="0"/>
        <pt x="265" y="425" on="1"/>
        <pt x="261" y="415" on="0"/>
        <pt x="249" y="394" on="0"/>
        <pt x="245" y="390" on="1"/>
        <pt x="246" y="390" on="1"/>
        <pt x="246" y="390" on="0"/>
        <pt x="237" y="365" on="0"/>
        <pt x="227" y="338" on="0"/>
        <pt x="227" y="336" on="1"/>
        <pt x="227" y="332" on="0"/>
        <pt x="256" y="332" on="0"/>
        <pt x="296" y="339" on="0"/>
        <pt x="312" y="343" on="1"/>
        <pt x="326" y="347" on="0"/>
        <pt x="336" y="347" on="0"/>
        <pt x="351" y="343" on="1"/>
        <pt x="363" y="336" on="0"/>
        <pt x="367" y="303" on="0"/>
        <pt x="363" y="298" on="1"/>
        <pt x="362" y="294" on="0"/>
        <pt x="329" y="280" on="0"/>
        <pt x="308" y="276" on="1"/>
        <pt x="290" y="272" on="0"/>
        <pt x="238" y="262" on="0"/>
        <pt x="199" y="254" on="0"/>
        <pt x="199" y="251" on="1"/>
        <pt x="195" y="251" on="0"/>
        <pt x="189" y="242" on="0"/>
        <pt x="189" y="239" on="1"/>
        <pt x="189" y="232" on="0"/>
        <pt x="187" y="222" on="0"/>
        <pt x="185" y="218" on="1"/>
        <pt x="183" y="212" on="0"/>
        <pt x="173" y="176" on="0"/>
        <pt x="162" y="132" on="0"/>
        <pt x="155" y="96" on="0"/>
        <pt x="155" y="90" on="1"/>
        <pt x="149" y="83" on="0"/>
        <pt x="147" y="62" on="0"/>
        <pt x="147" y="54" on="1"/>
        <pt x="143" y="46" on="0"/>
        <pt x="141" y="33" on="0"/>
        <pt x="141" y="29" on="1"/>
        <pt x="141" y="28" on="0"/>
        <pt x="141" y="22" on="0"/>
        <pt x="140" y="19" on="1"/>
        <pt x="139" y="9" on="0"/>
        <pt x="136" y="-24" on="0"/>
        <pt x="136" y="-40" on="1"/>
        <pt x="133" y="-69" on="1"/>
        <pt x="132" y="-82" on="0"/>
        <pt x="128" y="-101" on="0"/>
      </contour>
      <contour>
        <pt x="422" y="31" on="1"/>
        <pt x="407" y="33" on="0"/>
        <pt x="386" y="72" on="0"/>
        <pt x="384" y="88" on="1"/>
        <pt x="385" y="96" on="0"/>
        <pt x="388" y="126" on="0"/>
        <pt x="390" y="142" on="1"/>
        <pt x="394" y="161" on="0"/>
        <pt x="408" y="216" on="0"/>
        <pt x="423" y="272" on="0"/>
        <pt x="435" y="312" on="0"/>
        <pt x="437" y="316" on="1"/>
        <pt x="442" y="324" on="0"/>
        <pt x="464" y="316" on="0"/>
        <pt x="471" y="308" on="1"/>
        <pt x="477" y="300" on="0"/>
        <pt x="480" y="278" on="0"/>
        <pt x="471" y="236" on="0"/>
        <pt x="459" y="195" on="1"/>
        <pt x="455" y="179" on="0"/>
        <pt x="447" y="152" on="0"/>
        <pt x="442" y="130" on="0"/>
        <pt x="439" y="110" on="0"/>
        <pt x="437" y="90" on="0"/>
        <pt x="438" y="79" on="1"/>
        <pt x="434" y="45" on="0"/>
        <pt x="430" y="30" on="0"/>
      </contour>
      <contour>
        <pt x="461" y="437" on="1"/>
        <pt x="460" y="447" on="0"/>
        <pt x="465" y="478" on="0"/>
        <pt x="481" y="503" on="0"/>
        <pt x="496" y="504" on="1"/>
        <pt x="500" y="504" on="0"/>
        <pt x="506" y="502" on="0"/>
        <pt x="521" y="496" on="1"/>
        <pt x="529" y="481" on="0"/>
        <pt x="545" y="444" on="0"/>
        <pt x="543" y="409" on="0"/>
        <pt x="523" y="395" on="1"/>
        <pt x="519" y="392" on="0"/>
        <pt x="512" y="393" on="0"/>
        <pt x="504" y="398" on="1"/>
        <pt x="497" y="399" on="0"/>
        <pt x="476" y="416" on="0"/>
        <pt x="461" y="435" on="0"/>
      </contour>
    </TTGlyph>
    <TTGlyph name="glyph00035" xMin="77" yMin="-110" xMax="615" yMax="665">
      <contour>
        <pt x="123" y="-106" on="1"/>
        <pt x="117" y="-110" on="0"/>
        <pt x="102" y="-98" on="0"/>
        <pt x="88" y="-82" on="1"/>
        <pt x="81" y="-74" on="0"/>
        <pt x="77" y="-56" on="0"/>
        <pt x="80" y="-31" on="1"/>
        <pt x="84" y="-20" on="0"/>
        <pt x="85" y="0" on="0"/>
        <pt x="85" y="4" on="1"/>
        <pt x="85" y="10" on="0"/>
        <pt x="92" y="54" on="0"/>
        <pt x="100" y="103" on="0"/>
        <pt x="103" y="116" on="1"/>
        <pt x="103" y="117" on="0"/>
        <pt x="105" y="125" on="0"/>
        <pt x="106" y="128" on="1"/>
        <pt x="108" y="137" on="0"/>
        <pt x="115" y="167" on="0"/>
        <pt x="118" y="189" on="1"/>
        <pt x="126" y="214" on="0"/>
        <pt x="137" y="263" on="0"/>
        <pt x="137" y="272" on="1"/>
        <pt x="137" y="290" on="0"/>
        <pt x="151" y="298" on="1"/>
        <pt x="152" y="303" on="0"/>
        <pt x="162" y="324" on="0"/>
        <pt x="166" y="331" on="1"/>
        <pt x="186" y="388" on="0"/>
        <pt x="212" y="455" on="0"/>
        <pt x="226" y="480" on="1"/>
        <pt x="232" y="497" on="0"/>
        <pt x="247" y="533" on="0"/>
        <pt x="255" y="543" on="1"/>
        <pt x="260" y="556" on="0"/>
        <pt x="296" y="597" on="0"/>
        <pt x="336" y="636" on="0"/>
        <pt x="348" y="646" on="1"/>
        <pt x="370" y="657" on="0"/>
        <pt x="396" y="665" on="0"/>
        <pt x="417" y="665" on="1"/>
        <pt x="436" y="665" on="0"/>
        <pt x="449" y="656" on="0"/>
        <pt x="462" y="644" on="1"/>
        <pt x="476" y="629" on="0"/>
        <pt x="480" y="619" on="0"/>
        <pt x="480" y="605" on="1"/>
        <pt x="478" y="595" on="0"/>
        <pt x="467" y="566" on="0"/>
        <pt x="453" y="537" on="0"/>
        <pt x="440" y="517" on="0"/>
        <pt x="436" y="517" on="1"/>
        <pt x="413" y="510" on="0"/>
        <pt x="413" y="541" on="1"/>
        <pt x="413" y="548" on="0"/>
        <pt x="406" y="561" on="0"/>
        <pt x="406" y="561" on="1"/>
        <pt x="406" y="564" on="0"/>
        <pt x="409" y="579" on="0"/>
        <pt x="413" y="586" on="1"/>
        <pt x="418" y="596" on="0"/>
        <pt x="413" y="606" on="0"/>
        <pt x="402" y="603" on="1"/>
        <pt x="399" y="601" on="0"/>
        <pt x="373" y="581" on="0"/>
        <pt x="344" y="556" on="0"/>
        <pt x="322" y="534" on="0"/>
        <pt x="322" y="531" on="1"/>
        <pt x="322" y="531" on="0"/>
        <pt x="314" y="514" on="0"/>
        <pt x="303" y="501" on="1"/>
        <pt x="296" y="491" on="0"/>
        <pt x="285" y="472" on="0"/>
        <pt x="285" y="470" on="1"/>
        <pt x="285" y="466" on="0"/>
        <pt x="284" y="457" on="0"/>
        <pt x="279" y="457" on="1"/>
        <pt x="279" y="457" on="0"/>
        <pt x="273" y="439" on="0"/>
        <pt x="265" y="425" on="1"/>
        <pt x="261" y="415" on="0"/>
        <pt x="249" y="394" on="0"/>
        <pt x="245" y="390" on="1"/>
        <pt x="246" y="390" on="1"/>
        <pt x="246" y="390" on="0"/>
        <pt x="237" y="365" on="0"/>
        <pt x="227" y="338" on="0"/>
        <pt x="227" y="336" on="1"/>
        <pt x="227" y="332" on="0"/>
        <pt x="256" y="332" on="0"/>
        <pt x="296" y="339" on="0"/>
        <pt x="312" y="343" on="1"/>
        <pt x="326" y="347" on="0"/>
        <pt x="336" y="347" on="0"/>
        <pt x="351" y="343" on="1"/>
        <pt x="359" y="338" on="0"/>
        <pt x="370" y="319" on="0"/>
        <pt x="375" y="302" on="0"/>
        <pt x="372" y="298" on="1"/>
        <pt x="371" y="294" on="0"/>
        <pt x="329" y="280" on="0"/>
        <pt x="308" y="276" on="1"/>
        <pt x="290" y="272" on="0"/>
        <pt x="238" y="262" on="0"/>
        <pt x="199" y="254" on="0"/>
        <pt x="199" y="251" on="1"/>
        <pt x="195" y="251" on="0"/>
        <pt x="189" y="242" on="0"/>
        <pt x="189" y="239" on="1"/>
        <pt x="189" y="225" on="0"/>
        <pt x="185" y="218" on="1"/>
        <pt x="183" y="212" on="0"/>
        <pt x="173" y="176" on="0"/>
        <pt x="162" y="132" on="0"/>
        <pt x="155" y="96" on="0"/>
        <pt x="155" y="90" on="1"/>
        <pt x="149" y="83" on="0"/>
        <pt x="147" y="62" on="0"/>
        <pt x="147" y="54" on="1"/>
        <pt x="143" y="46" on="0"/>
        <pt x="141" y="33" on="0"/>
        <pt x="141" y="29" on="1"/>
        <pt x="141" y="28" on="0"/>
        <pt x="141" y="22" on="0"/>
        <pt x="140" y="19" on="1"/>
        <pt x="139" y="9" on="0"/>
        <pt x="136" y="-24" on="0"/>
        <pt x="136" y="-40" on="1"/>
        <pt x="133" y="-69" on="1"/>
        <pt x="132" y="-82" on="0"/>
        <pt x="128" y="-101" on="0"/>
      </contour>
      <contour>
        <pt x="392" y="-9" on="1"/>
        <pt x="379" y="-4" on="0"/>
        <pt x="367" y="17" on="0"/>
        <pt x="366" y="37" on="1"/>
        <pt x="366" y="49" on="0"/>
        <pt x="374" y="89" on="0"/>
        <pt x="379" y="115" on="1"/>
        <pt x="379" y="117" on="0"/>
        <pt x="380" y="122" on="0"/>
        <pt x="380" y="123" on="1"/>
        <pt x="381" y="127" on="0"/>
        <pt x="384" y="143" on="0"/>
        <pt x="386" y="152" on="0"/>
        <pt x="386" y="147" on="1"/>
        <pt x="393" y="174" on="1"/>
        <pt x="398" y="192" on="0"/>
        <pt x="408" y="228" on="0"/>
        <pt x="416" y="255" on="0"/>
        <pt x="417" y="257" on="1"/>
        <pt x="417" y="257" on="0"/>
        <pt x="425" y="280" on="0"/>
        <pt x="429" y="291" on="1"/>
        <pt x="446" y="338" on="0"/>
        <pt x="474" y="403" on="0"/>
        <pt x="485" y="418" on="1"/>
        <pt x="486" y="421" on="0"/>
        <pt x="490" y="430" on="0"/>
        <pt x="491" y="433" on="1"/>
        <pt x="492" y="441" on="0"/>
        <pt x="495" y="450" on="0"/>
        <pt x="498" y="454" on="1"/>
        <pt x="500" y="458" on="0"/>
        <pt x="508" y="471" on="0"/>
        <pt x="513" y="481" on="1"/>
        <pt x="517" y="492" on="1"/>
        <pt x="523" y="505" on="0"/>
        <pt x="541" y="537" on="0"/>
        <pt x="545" y="544" on="1"/>
        <pt x="549" y="553" on="0"/>
        <pt x="565" y="578" on="0"/>
        <pt x="569" y="582" on="1"/>
        <pt x="568" y="583" on="1"/>
        <pt x="573" y="592" on="0"/>
        <pt x="588" y="595" on="0"/>
        <pt x="597" y="595" on="1"/>
        <pt x="611" y="595" on="0"/>
        <pt x="615" y="587" on="0"/>
        <pt x="615" y="573" on="1"/>
        <pt x="615" y="558" on="0"/>
        <pt x="614" y="545" on="0"/>
        <pt x="606" y="537" on="1"/>
        <pt x="607" y="537" on="1"/>
        <pt x="609" y="539" on="0"/>
        <pt x="603" y="526" on="0"/>
        <pt x="601" y="523" on="1"/>
        <pt x="599" y="518" on="0"/>
        <pt x="594" y="506" on="0"/>
        <pt x="591" y="503" on="1"/>
        <pt x="588" y="499" on="0"/>
        <pt x="565" y="454" on="0"/>
        <pt x="536" y="394" on="0"/>
        <pt x="510" y="338" on="0"/>
        <pt x="504" y="323" on="1"/>
        <pt x="499" y="308" on="1"/>
        <pt x="497" y="304" on="0"/>
        <pt x="497" y="302" on="1"/>
        <pt x="494" y="295" on="0"/>
        <pt x="488" y="281" on="0"/>
        <pt x="485" y="276" on="1"/>
        <pt x="468" y="218" on="1"/>
        <pt x="463" y="197" on="1"/>
        <pt x="454" y="175" on="1"/>
        <pt x="448" y="156" on="1"/>
        <pt x="446" y="150" on="0"/>
        <pt x="444" y="140" on="0"/>
        <pt x="441" y="137" on="1"/>
        <pt x="441" y="136" on="0"/>
        <pt x="440" y="133" on="0"/>
        <pt x="440" y="132" on="1"/>
        <pt x="436" y="116" on="0"/>
        <pt x="426" y="58" on="0"/>
        <pt x="424" y="26" on="1"/>
        <pt x="424" y="25" on="0"/>
        <pt x="423" y="23" on="0"/>
        <pt x="423" y="22" on="1"/>
        <pt x="420" y="1" on="0"/>
        <pt x="406" y="-13" on="0"/>
      </contour>
    </TTGlyph>
    <TTGlyph name="glyph00036" xMin="77" yMin="-110" xMax="664" yMax="665">
      <contour>
        <pt x="123" y="-106" on="1"/>
        <pt x="117" y="-110" on="0"/>
        <pt x="102" y="-98" on="0"/>
        <pt x="88" y="-82" on="1"/>
        <pt x="81" y="-74" on="0"/>
        <pt x="77" y="-56" on="0"/>
        <pt x="80" y="-31" on="1"/>
        <pt x="84" y="-20" on="0"/>
        <pt x="85" y="0" on="0"/>
        <pt x="85" y="4" on="1"/>
        <pt x="85" y="10" on="0"/>
        <pt x="92" y="54" on="0"/>
        <pt x="100" y="103" on="0"/>
        <pt x="103" y="116" on="1"/>
        <pt x="103" y="117" on="0"/>
        <pt x="105" y="125" on="0"/>
        <pt x="106" y="128" on="1"/>
        <pt x="108" y="137" on="0"/>
        <pt x="115" y="167" on="0"/>
        <pt x="118" y="189" on="1"/>
        <pt x="126" y="214" on="0"/>
        <pt x="137" y="263" on="0"/>
        <pt x="137" y="272" on="1"/>
        <pt x="137" y="290" on="0"/>
        <pt x="151" y="298" on="1"/>
        <pt x="152" y="303" on="0"/>
        <pt x="162" y="324" on="0"/>
        <pt x="166" y="331" on="1"/>
        <pt x="186" y="388" on="0"/>
        <pt x="212" y="455" on="0"/>
        <pt x="226" y="480" on="1"/>
        <pt x="232" y="497" on="0"/>
        <pt x="247" y="533" on="0"/>
        <pt x="255" y="543" on="1"/>
        <pt x="260" y="556" on="0"/>
        <pt x="296" y="597" on="0"/>
        <pt x="336" y="636" on="0"/>
        <pt x="348" y="646" on="1"/>
        <pt x="370" y="657" on="0"/>
        <pt x="396" y="665" on="0"/>
        <pt x="417" y="665" on="1"/>
        <pt x="436" y="665" on="0"/>
        <pt x="449" y="656" on="0"/>
        <pt x="462" y="644" on="1"/>
        <pt x="476" y="629" on="0"/>
        <pt x="480" y="619" on="0"/>
        <pt x="480" y="605" on="1"/>
        <pt x="478" y="595" on="0"/>
        <pt x="467" y="566" on="0"/>
        <pt x="453" y="537" on="0"/>
        <pt x="440" y="517" on="0"/>
        <pt x="436" y="517" on="1"/>
        <pt x="413" y="510" on="0"/>
        <pt x="413" y="541" on="1"/>
        <pt x="413" y="548" on="0"/>
        <pt x="406" y="561" on="0"/>
        <pt x="406" y="561" on="1"/>
        <pt x="406" y="564" on="0"/>
        <pt x="409" y="579" on="0"/>
        <pt x="413" y="586" on="1"/>
        <pt x="418" y="596" on="0"/>
        <pt x="413" y="606" on="0"/>
        <pt x="402" y="603" on="1"/>
        <pt x="399" y="601" on="0"/>
        <pt x="373" y="581" on="0"/>
        <pt x="344" y="556" on="0"/>
        <pt x="322" y="534" on="0"/>
        <pt x="322" y="531" on="1"/>
        <pt x="322" y="531" on="0"/>
        <pt x="314" y="514" on="0"/>
        <pt x="303" y="501" on="1"/>
        <pt x="296" y="491" on="0"/>
        <pt x="285" y="472" on="0"/>
        <pt x="285" y="470" on="1"/>
        <pt x="285" y="466" on="0"/>
        <pt x="284" y="457" on="0"/>
        <pt x="279" y="457" on="1"/>
        <pt x="279" y="457" on="0"/>
        <pt x="273" y="439" on="0"/>
        <pt x="265" y="425" on="1"/>
        <pt x="261" y="415" on="0"/>
        <pt x="249" y="394" on="0"/>
        <pt x="245" y="390" on="1"/>
        <pt x="246" y="390" on="1"/>
        <pt x="246" y="390" on="0"/>
        <pt x="236" y="359" on="0"/>
        <pt x="225" y="325" on="0"/>
        <pt x="224" y="321" on="1"/>
        <pt x="238" y="322" on="0"/>
        <pt x="287" y="332" on="0"/>
        <pt x="312" y="335" on="1"/>
        <pt x="351" y="340" on="0"/>
        <pt x="432" y="352" on="0"/>
        <pt x="467" y="368" on="1"/>
        <pt x="476" y="390" on="0"/>
        <pt x="500" y="444" on="0"/>
        <pt x="523" y="486" on="0"/>
        <pt x="527" y="491" on="1"/>
        <pt x="544" y="500" on="0"/>
        <pt x="560" y="497" on="0"/>
        <pt x="570" y="481" on="1"/>
        <pt x="575" y="474" on="0"/>
        <pt x="580" y="466" on="0"/>
        <pt x="576" y="450" on="0"/>
        <pt x="559" y="416" on="0"/>
        <pt x="542" y="384" on="1"/>
        <pt x="537" y="374" on="0"/>
        <pt x="529" y="359" on="0"/>
        <pt x="529" y="359" on="1"/>
        <pt x="533" y="358" on="0"/>
        <pt x="549" y="358" on="0"/>
        <pt x="561" y="359" on="1"/>
        <pt x="572" y="361" on="0"/>
        <pt x="606" y="364" on="0"/>
        <pt x="616" y="362" on="1"/>
        <pt x="639" y="362" on="0"/>
        <pt x="661" y="345" on="0"/>
        <pt x="662" y="325" on="1"/>
        <pt x="664" y="314" on="0"/>
        <pt x="651" y="310" on="0"/>
        <pt x="624" y="310" on="1"/>
        <pt x="615" y="310" on="0"/>
        <pt x="577" y="308" on="0"/>
        <pt x="536" y="306" on="0"/>
        <pt x="507" y="303" on="0"/>
        <pt x="507" y="301" on="1"/>
        <pt x="504" y="299" on="0"/>
        <pt x="491" y="265" on="0"/>
        <pt x="478" y="222" on="0"/>
        <pt x="473" y="205" on="1"/>
        <pt x="466" y="171" on="0"/>
        <pt x="459" y="103" on="0"/>
        <pt x="463" y="53" on="0"/>
        <pt x="472" y="43" on="1"/>
        <pt x="481" y="34" on="0"/>
        <pt x="533" y="45" on="0"/>
        <pt x="549" y="58" on="1"/>
        <pt x="567" y="73" on="0"/>
        <pt x="590" y="73" on="0"/>
        <pt x="593" y="52" on="0"/>
        <pt x="580" y="33" on="1"/>
        <pt x="568" y="15" on="0"/>
        <pt x="532" y="-12" on="0"/>
        <pt x="493" y="-23" on="0"/>
        <pt x="476" y="-18" on="1"/>
        <pt x="462" y="-14" on="0"/>
        <pt x="444" y="-3" on="0"/>
        <pt x="429" y="10" on="1"/>
        <pt x="417" y="26" on="0"/>
        <pt x="404" y="54" on="0"/>
        <pt x="400" y="91" on="0"/>
        <pt x="400" y="120" on="1"/>
        <pt x="400" y="132" on="0"/>
        <pt x="409" y="180" on="0"/>
        <pt x="422" y="233" on="0"/>
        <pt x="433" y="275" on="0"/>
        <pt x="434" y="281" on="1"/>
        <pt x="431" y="287" on="0"/>
        <pt x="406" y="289" on="0"/>
        <pt x="354" y="283" on="0"/>
        <pt x="308" y="276" on="1"/>
        <pt x="290" y="272" on="0"/>
        <pt x="238" y="262" on="0"/>
        <pt x="199" y="254" on="0"/>
        <pt x="199" y="251" on="1"/>
        <pt x="195" y="251" on="0"/>
        <pt x="189" y="242" on="0"/>
        <pt x="189" y="239" on="1"/>
        <pt x="189" y="225" on="0"/>
        <pt x="185" y="218" on="1"/>
        <pt x="183" y="212" on="0"/>
        <pt x="173" y="176" on="0"/>
        <pt x="162" y="132" on="0"/>
        <pt x="155" y="96" on="0"/>
        <pt x="155" y="90" on="1"/>
        <pt x="149" y="83" on="0"/>
        <pt x="147" y="62" on="0"/>
        <pt x="147" y="54" on="1"/>
        <pt x="143" y="46" on="0"/>
        <pt x="141" y="33" on="0"/>
        <pt x="141" y="29" on="1"/>
        <pt x="141" y="28" on="0"/>
        <pt x="141" y="22" on="0"/>
        <pt x="140" y="19" on="1"/>
        <pt x="139" y="9" on="0"/>
        <pt x="136" y="-24" on="0"/>
        <pt x="136" y="-40" on="1"/>
        <pt x="133" y="-69" on="1"/>
        <pt x="132" y="-82" on="0"/>
        <pt x="128" y="-101" on="0"/>
      </contour>
    </TTGlyph>
    <TTGlyph name="h" xMin="93" yMin="53" xMax="502" yMax="654">
      <contour>
        <pt x="136" y="54" on="1"/>
        <pt x="129" y="53" on="0"/>
        <pt x="114" y="56" on="0"/>
        <pt x="107" y="61" on="1"/>
        <pt x="99" y="69" on="0"/>
        <pt x="93" y="78" on="0"/>
        <pt x="96" y="98" on="0"/>
        <pt x="101" y="119" on="1"/>
        <pt x="106" y="135" on="0"/>
        <pt x="120" y="192" on="0"/>
        <pt x="128" y="220" on="1"/>
        <pt x="131" y="236" on="0"/>
        <pt x="142" y="270" on="0"/>
        <pt x="154" y="299" on="0"/>
        <pt x="157" y="307" on="1"/>
        <pt x="165" y="335" on="0"/>
        <pt x="180" y="377" on="0"/>
        <pt x="202" y="432" on="0"/>
        <pt x="218" y="478" on="1"/>
        <pt x="240" y="538" on="0"/>
        <pt x="263" y="601" on="0"/>
        <pt x="274" y="630" on="0"/>
        <pt x="276" y="638" on="1"/>
        <pt x="276" y="646" on="0"/>
        <pt x="285" y="654" on="0"/>
        <pt x="292" y="654" on="1"/>
        <pt x="306" y="654" on="0"/>
        <pt x="323" y="627" on="0"/>
        <pt x="327" y="590" on="0"/>
        <pt x="319" y="574" on="1"/>
        <pt x="303" y="538" on="0"/>
        <pt x="267" y="439" on="0"/>
        <pt x="233" y="344" on="0"/>
        <pt x="218" y="311" on="1"/>
        <pt x="218" y="307" on="0"/>
        <pt x="212" y="287" on="0"/>
        <pt x="208" y="279" on="1"/>
        <pt x="204" y="271" on="0"/>
        <pt x="197" y="257" on="0"/>
        <pt x="197" y="257" on="1"/>
        <pt x="197" y="253" on="0"/>
        <pt x="191" y="231" on="0"/>
        <pt x="186" y="215" on="1"/>
        <pt x="182" y="203" on="0"/>
        <pt x="171" y="165" on="0"/>
        <pt x="169" y="152" on="1"/>
        <pt x="174" y="161" on="0"/>
        <pt x="206" y="197" on="0"/>
        <pt x="220" y="210" on="1"/>
        <pt x="236" y="224" on="0"/>
        <pt x="276" y="258" on="0"/>
        <pt x="288" y="266" on="1"/>
        <pt x="300" y="274" on="0"/>
        <pt x="319" y="287" on="0"/>
        <pt x="319" y="287" on="1"/>
        <pt x="319" y="291" on="0"/>
        <pt x="326" y="292" on="0"/>
        <pt x="330" y="292" on="1"/>
        <pt x="334" y="292" on="0"/>
        <pt x="335" y="294" on="0"/>
        <pt x="335" y="298" on="1"/>
        <pt x="335" y="303" on="0"/>
        <pt x="358" y="311" on="0"/>
        <pt x="389" y="316" on="0"/>
        <pt x="399" y="316" on="1"/>
        <pt x="411" y="316" on="0"/>
        <pt x="425" y="306" on="0"/>
        <pt x="436" y="289" on="1"/>
        <pt x="448" y="273" on="0"/>
        <pt x="455" y="228" on="0"/>
        <pt x="447" y="204" on="1"/>
        <pt x="447" y="196" on="0"/>
        <pt x="442" y="167" on="0"/>
        <pt x="442" y="151" on="1"/>
        <pt x="436" y="119" on="1"/>
        <pt x="452" y="119" on="1"/>
        <pt x="460" y="119" on="0"/>
        <pt x="474" y="114" on="0"/>
        <pt x="474" y="114" on="1"/>
        <pt x="478" y="110" on="0"/>
        <pt x="486" y="103" on="0"/>
        <pt x="490" y="103" on="1"/>
        <pt x="502" y="103" on="0"/>
        <pt x="496" y="84" on="0"/>
        <pt x="484" y="76" on="1"/>
        <pt x="460" y="60" on="0"/>
        <pt x="421" y="60" on="0"/>
        <pt x="405" y="76" on="1"/>
        <pt x="389" y="93" on="0"/>
        <pt x="381" y="135" on="0"/>
        <pt x="389" y="167" on="1"/>
        <pt x="393" y="211" on="0"/>
        <pt x="394" y="252" on="0"/>
        <pt x="383" y="252" on="1"/>
        <pt x="373" y="252" on="0"/>
        <pt x="323" y="225" on="0"/>
        <pt x="261" y="179" on="0"/>
        <pt x="201" y="123" on="0"/>
        <pt x="181" y="93" on="1"/>
        <pt x="169" y="78" on="0"/>
        <pt x="147" y="55" on="0"/>
      </contour>
    </TTGlyph>
    <TTGlyph name="i" xMin="96" yMin="13" xMax="288" yMax="544">
      <contour>
        <pt x="111" y="32" on="1"/>
        <pt x="103" y="40" on="0"/>
        <pt x="96" y="64" on="0"/>
        <pt x="98" y="88" on="0"/>
        <pt x="102" y="96" on="1"/>
        <pt x="102" y="104" on="0"/>
        <pt x="107" y="113" on="0"/>
        <pt x="106" y="117" on="1"/>
        <pt x="105" y="121" on="0"/>
        <pt x="111" y="141" on="0"/>
        <pt x="114" y="150" on="1"/>
        <pt x="121" y="166" on="0"/>
        <pt x="137" y="211" on="0"/>
        <pt x="151" y="255" on="0"/>
        <pt x="161" y="287" on="0"/>
        <pt x="162" y="291" on="1"/>
        <pt x="162" y="303" on="0"/>
        <pt x="178" y="304" on="1"/>
        <pt x="190" y="308" on="0"/>
        <pt x="202" y="301" on="0"/>
        <pt x="212" y="285" on="1"/>
        <pt x="220" y="277" on="0"/>
        <pt x="216" y="245" on="0"/>
        <pt x="205" y="221" on="1"/>
        <pt x="201" y="213" on="0"/>
        <pt x="190" y="183" on="0"/>
        <pt x="188" y="171" on="1"/>
        <pt x="184" y="163" on="0"/>
        <pt x="173" y="134" on="0"/>
        <pt x="169" y="121" on="1"/>
        <pt x="167" y="116" on="0"/>
        <pt x="163" y="97" on="0"/>
        <pt x="157" y="76" on="0"/>
        <pt x="152" y="68" on="1"/>
        <pt x="143" y="27" on="0"/>
        <pt x="128" y="13" on="0"/>
      </contour>
      <contour>
        <pt x="208" y="438" on="1"/>
        <pt x="203" y="443" on="0"/>
        <pt x="195" y="462" on="0"/>
        <pt x="193" y="479" on="0"/>
        <pt x="196" y="479" on="1"/>
        <pt x="204" y="480" on="0"/>
        <pt x="226" y="512" on="0"/>
        <pt x="224" y="524" on="1"/>
        <pt x="224" y="528" on="0"/>
        <pt x="230" y="535" on="0"/>
        <pt x="234" y="536" on="1"/>
        <pt x="246" y="544" on="0"/>
        <pt x="269" y="533" on="0"/>
        <pt x="279" y="517" on="1"/>
        <pt x="288" y="498" on="0"/>
        <pt x="280" y="473" on="0"/>
        <pt x="262" y="451" on="1"/>
        <pt x="247" y="431" on="0"/>
        <pt x="222" y="427" on="0"/>
      </contour>
    </TTGlyph>
    <TTGlyph name="l" xMin="84" yMin="-5" xMax="332" yMax="654">
      <contour>
        <pt x="130" y="0" on="1"/>
        <pt x="111" y="-5" on="0"/>
        <pt x="88" y="21" on="0"/>
        <pt x="84" y="75" on="0"/>
        <pt x="92" y="112" on="1"/>
        <pt x="97" y="124" on="0"/>
        <pt x="103" y="147" on="0"/>
        <pt x="103" y="154" on="1"/>
        <pt x="105" y="164" on="0"/>
        <pt x="117" y="203" on="0"/>
        <pt x="131" y="245" on="0"/>
        <pt x="144" y="278" on="0"/>
        <pt x="146" y="282" on="1"/>
        <pt x="150" y="282" on="0"/>
        <pt x="156" y="296" on="0"/>
        <pt x="156" y="303" on="1"/>
        <pt x="156" y="311" on="0"/>
        <pt x="163" y="331" on="0"/>
        <pt x="167" y="335" on="1"/>
        <pt x="167" y="340" on="0"/>
        <pt x="172" y="353" on="0"/>
        <pt x="172" y="357" on="1"/>
        <pt x="172" y="361" on="0"/>
        <pt x="177" y="369" on="0"/>
        <pt x="177" y="373" on="1"/>
        <pt x="184" y="386" on="0"/>
        <pt x="207" y="443" on="0"/>
        <pt x="234" y="513" on="0"/>
        <pt x="258" y="581" on="0"/>
        <pt x="273" y="628" on="0"/>
        <pt x="273" y="633" on="1"/>
        <pt x="273" y="641" on="0"/>
        <pt x="281" y="649" on="0"/>
        <pt x="289" y="649" on="1"/>
        <pt x="292" y="652" on="0"/>
        <pt x="301" y="654" on="0"/>
        <pt x="305" y="654" on="1"/>
        <pt x="305" y="654" on="0"/>
        <pt x="313" y="646" on="0"/>
        <pt x="321" y="638" on="1"/>
        <pt x="329" y="631" on="0"/>
        <pt x="332" y="613" on="0"/>
        <pt x="332" y="601" on="1"/>
        <pt x="332" y="588" on="0"/>
        <pt x="326" y="568" on="0"/>
        <pt x="308" y="530" on="0"/>
        <pt x="289" y="490" on="1"/>
        <pt x="281" y="470" on="0"/>
        <pt x="263" y="435" on="0"/>
        <pt x="263" y="431" on="1"/>
        <pt x="263" y="427" on="0"/>
        <pt x="256" y="411" on="0"/>
        <pt x="252" y="399" on="1"/>
        <pt x="248" y="391" on="0"/>
        <pt x="234" y="360" on="0"/>
        <pt x="219" y="325" on="0"/>
        <pt x="209" y="300" on="0"/>
        <pt x="209" y="298" on="1"/>
        <pt x="209" y="294" on="0"/>
        <pt x="208" y="286" on="0"/>
        <pt x="204" y="282" on="1"/>
        <pt x="200" y="282" on="0"/>
        <pt x="199" y="271" on="0"/>
        <pt x="199" y="271" on="1"/>
        <pt x="199" y="261" on="0"/>
        <pt x="183" y="218" on="1"/>
        <pt x="167" y="163" on="0"/>
        <pt x="140" y="71" on="0"/>
        <pt x="140" y="43" on="1"/>
        <pt x="140" y="19" on="0"/>
        <pt x="138" y="4" on="0"/>
      </contour>
    </TTGlyph>
    <TTGlyph name="o" xMin="95" yMin="15" xMax="398" yMax="377">
      <contour>
        <pt x="169" y="15" on="1"/>
        <pt x="156" y="15" on="0"/>
        <pt x="141" y="25" on="0"/>
        <pt x="130" y="34" on="1"/>
        <pt x="111" y="54" on="0"/>
        <pt x="95" y="91" on="0"/>
        <pt x="98" y="108" on="1"/>
        <pt x="101" y="116" on="0"/>
        <pt x="100" y="131" on="0"/>
        <pt x="100" y="131" on="1"/>
        <pt x="95" y="136" on="0"/>
        <pt x="99" y="139" on="0"/>
        <pt x="101" y="143" on="1"/>
        <pt x="107" y="143" on="0"/>
        <pt x="105" y="154" on="1"/>
        <pt x="103" y="162" on="0"/>
        <pt x="123" y="216" on="0"/>
        <pt x="138" y="240" on="1"/>
        <pt x="144" y="250" on="0"/>
        <pt x="168" y="283" on="0"/>
        <pt x="197" y="316" on="0"/>
        <pt x="209" y="326" on="1"/>
        <pt x="234" y="347" on="0"/>
        <pt x="272" y="367" on="0"/>
        <pt x="294" y="372" on="1"/>
        <pt x="316" y="377" on="0"/>
        <pt x="333" y="377" on="0"/>
        <pt x="348" y="361" on="1"/>
        <pt x="371" y="351" on="0"/>
        <pt x="392" y="323" on="0"/>
        <pt x="395" y="296" on="1"/>
        <pt x="398" y="266" on="0"/>
        <pt x="383" y="189" on="0"/>
        <pt x="343" y="132" on="1"/>
        <pt x="318" y="96" on="0"/>
        <pt x="276" y="61" on="0"/>
        <pt x="247" y="44" on="1"/>
        <pt x="226" y="30" on="0"/>
        <pt x="192" y="17" on="0"/>
      </contour>
      <contour>
        <pt x="265" y="121" on="1"/>
        <pt x="289" y="148" on="0"/>
        <pt x="318" y="196" on="0"/>
        <pt x="331" y="233" on="1"/>
        <pt x="335" y="244" on="0"/>
        <pt x="337" y="277" on="0"/>
        <pt x="334" y="306" on="0"/>
        <pt x="328" y="308" on="1"/>
        <pt x="316" y="315" on="0"/>
        <pt x="282" y="310" on="0"/>
        <pt x="262" y="293" on="1"/>
        <pt x="231" y="267" on="0"/>
        <pt x="185" y="190" on="0"/>
        <pt x="163" y="141" on="1"/>
        <pt x="148" y="105" on="0"/>
        <pt x="165" y="62" on="0"/>
        <pt x="222" y="75" on="0"/>
      </contour>
    </TTGlyph>
    <TTGlyph name="r" xMin="103" yMin="19" xMax="450" yMax="395">
      <contour>
        <pt x="119" y="35" on="1"/>
        <pt x="110" y="42" on="0"/>
        <pt x="103" y="56" on="0"/>
        <pt x="106" y="76" on="1"/>
        <pt x="109" y="104" on="0"/>
        <pt x="119" y="147" on="0"/>
        <pt x="126" y="175" on="1"/>
        <pt x="128" y="187" on="0"/>
        <pt x="147" y="245" on="0"/>
        <pt x="175" y="313" on="0"/>
        <pt x="203" y="374" on="0"/>
        <pt x="213" y="389" on="1"/>
        <pt x="221" y="395" on="0"/>
        <pt x="244" y="393" on="0"/>
        <pt x="252" y="385" on="1"/>
        <pt x="263" y="376" on="0"/>
        <pt x="248" y="331" on="0"/>
        <pt x="225" y="283" on="1"/>
        <pt x="213" y="256" on="0"/>
        <pt x="201" y="229" on="0"/>
        <pt x="203" y="224" on="0"/>
        <pt x="211" y="229" on="1"/>
        <pt x="217" y="240" on="0"/>
        <pt x="249" y="269" on="0"/>
        <pt x="285" y="297" on="0"/>
        <pt x="317" y="319" on="0"/>
        <pt x="323" y="322" on="1"/>
        <pt x="331" y="327" on="0"/>
        <pt x="352" y="334" on="0"/>
        <pt x="356" y="336" on="1"/>
        <pt x="379" y="347" on="0"/>
        <pt x="427" y="341" on="0"/>
        <pt x="433" y="326" on="1"/>
        <pt x="434" y="318" on="0"/>
        <pt x="445" y="310" on="0"/>
        <pt x="445" y="310" on="1"/>
        <pt x="449" y="310" on="0"/>
        <pt x="450" y="304" on="0"/>
        <pt x="450" y="304" on="1"/>
        <pt x="450" y="297" on="0"/>
        <pt x="429" y="294" on="0"/>
        <pt x="413" y="293" on="1"/>
        <pt x="400" y="292" on="0"/>
        <pt x="380" y="284" on="0"/>
        <pt x="366" y="278" on="1"/>
        <pt x="328" y="256" on="0"/>
        <pt x="259" y="214" on="0"/>
        <pt x="227" y="179" on="1"/>
        <pt x="220" y="171" on="0"/>
        <pt x="206" y="149" on="0"/>
        <pt x="198" y="136" on="1"/>
        <pt x="193" y="131" on="0"/>
        <pt x="183" y="97" on="0"/>
        <pt x="176" y="66" on="0"/>
        <pt x="176" y="63" on="1"/>
        <pt x="176" y="63" on="0"/>
        <pt x="170" y="44" on="0"/>
        <pt x="163" y="35" on="1"/>
        <pt x="151" y="19" on="0"/>
        <pt x="135" y="19" on="0"/>
      </contour>
    </TTGlyph>
    <TTGlyph name="t" xMin="115" yMin="2" xMax="413" yMax="556">
      <contour>
        <pt x="179" y="7" on="1"/>
        <pt x="168" y="9" on="0"/>
        <pt x="145" y="28" on="0"/>
        <pt x="128" y="53" on="0"/>
        <pt x="125" y="63" on="1"/>
        <pt x="125" y="65" on="0"/>
        <pt x="120" y="71" on="0"/>
        <pt x="120" y="71" on="1"/>
        <pt x="116" y="74" on="0"/>
        <pt x="115" y="121" on="0"/>
        <pt x="121" y="179" on="0"/>
        <pt x="125" y="196" on="1"/>
        <pt x="130" y="212" on="0"/>
        <pt x="150" y="267" on="0"/>
        <pt x="157" y="289" on="1"/>
        <pt x="184" y="347" on="1"/>
        <pt x="144" y="358" on="1"/>
        <pt x="137" y="360" on="0"/>
        <pt x="128" y="372" on="0"/>
        <pt x="128" y="376" on="1"/>
        <pt x="128" y="384" on="0"/>
        <pt x="146" y="407" on="0"/>
        <pt x="150" y="407" on="1"/>
        <pt x="155" y="406" on="0"/>
        <pt x="182" y="406" on="0"/>
        <pt x="208" y="408" on="0"/>
        <pt x="211" y="409" on="1"/>
        <pt x="215" y="411" on="0"/>
        <pt x="223" y="418" on="0"/>
        <pt x="225" y="425" on="1"/>
        <pt x="230" y="436" on="0"/>
        <pt x="238" y="455" on="0"/>
        <pt x="245" y="467" on="1"/>
        <pt x="252" y="480" on="0"/>
        <pt x="261" y="498" on="0"/>
        <pt x="271" y="514" on="1"/>
        <pt x="276" y="521" on="0"/>
        <pt x="288" y="541" on="0"/>
        <pt x="297" y="548" on="1"/>
        <pt x="306" y="556" on="0"/>
        <pt x="325" y="555" on="0"/>
        <pt x="340" y="542" on="1"/>
        <pt x="348" y="532" on="0"/>
        <pt x="350" y="522" on="0"/>
        <pt x="341" y="508" on="1"/>
        <pt x="333" y="491" on="0"/>
        <pt x="312" y="457" on="0"/>
        <pt x="303" y="440" on="1"/>
        <pt x="287" y="418" on="0"/>
        <pt x="307" y="412" on="0"/>
        <pt x="353" y="419" on="1"/>
        <pt x="382" y="424" on="0"/>
        <pt x="408" y="409" on="0"/>
        <pt x="410" y="392" on="1"/>
        <pt x="413" y="368" on="0"/>
        <pt x="397" y="358" on="0"/>
        <pt x="359" y="358" on="1"/>
        <pt x="335" y="354" on="0"/>
        <pt x="301" y="353" on="0"/>
        <pt x="293" y="353" on="1"/>
        <pt x="280" y="352" on="0"/>
        <pt x="272" y="352" on="0"/>
        <pt x="264" y="350" on="1"/>
        <pt x="256" y="348" on="0"/>
        <pt x="249" y="339" on="0"/>
        <pt x="245" y="331" on="1"/>
        <pt x="241" y="327" on="0"/>
        <pt x="225" y="293" on="0"/>
        <pt x="213" y="273" on="1"/>
        <pt x="199" y="231" on="0"/>
        <pt x="179" y="148" on="0"/>
        <pt x="173" y="109" on="1"/>
        <pt x="169" y="84" on="0"/>
        <pt x="179" y="65" on="0"/>
        <pt x="200" y="63" on="1"/>
        <pt x="211" y="62" on="0"/>
        <pt x="260" y="65" on="0"/>
        <pt x="274" y="69" on="1"/>
        <pt x="285" y="74" on="0"/>
        <pt x="309" y="85" on="0"/>
        <pt x="319" y="91" on="1"/>
        <pt x="328" y="96" on="0"/>
        <pt x="346" y="107" on="0"/>
        <pt x="346" y="107" on="1"/>
        <pt x="351" y="115" on="0"/>
        <pt x="363" y="109" on="0"/>
        <pt x="367" y="97" on="1"/>
        <pt x="367" y="85" on="0"/>
        <pt x="357" y="59" on="0"/>
        <pt x="325" y="41" on="1"/>
        <pt x="280" y="13" on="0"/>
        <pt x="205" y="2" on="0"/>
      </contour>
    </TTGlyph>
    <TTGlyph name="w" xMin="126" yMin="45" xMax="582" yMax="368">
      <contour>
        <pt x="177" y="45" on="1"/>
        <pt x="162" y="45" on="0"/>
        <pt x="137" y="82" on="0"/>
        <pt x="126" y="141" on="0"/>
        <pt x="128" y="173" on="1"/>
        <pt x="128" y="205" on="0"/>
        <pt x="135" y="244" on="0"/>
        <pt x="139" y="263" on="1"/>
        <pt x="142" y="269" on="0"/>
        <pt x="143" y="277" on="0"/>
        <pt x="146" y="295" on="0"/>
        <pt x="151" y="316" on="1"/>
        <pt x="155" y="333" on="0"/>
        <pt x="163" y="355" on="0"/>
        <pt x="167" y="359" on="1"/>
        <pt x="172" y="365" on="0"/>
        <pt x="188" y="368" on="0"/>
        <pt x="204" y="362" on="0"/>
        <pt x="209" y="354" on="1"/>
        <pt x="215" y="349" on="0"/>
        <pt x="216" y="314" on="0"/>
        <pt x="210" y="277" on="0"/>
        <pt x="204" y="269" on="1"/>
        <pt x="202" y="264" on="0"/>
        <pt x="197" y="222" on="0"/>
        <pt x="192" y="176" on="0"/>
        <pt x="189" y="162" on="1"/>
        <pt x="186" y="144" on="0"/>
        <pt x="199" y="122" on="0"/>
        <pt x="236" y="143" on="0"/>
        <pt x="267" y="188" on="1"/>
        <pt x="288" y="218" on="0"/>
        <pt x="310" y="256" on="0"/>
        <pt x="323" y="289" on="0"/>
        <pt x="330" y="308" on="1"/>
        <pt x="335" y="324" on="0"/>
        <pt x="344" y="345" on="0"/>
        <pt x="348" y="348" on="1"/>
        <pt x="355" y="353" on="0"/>
        <pt x="374" y="351" on="0"/>
        <pt x="386" y="343" on="1"/>
        <pt x="398" y="331" on="0"/>
        <pt x="398" y="298" on="0"/>
        <pt x="386" y="274" on="1"/>
        <pt x="378" y="258" on="0"/>
        <pt x="363" y="208" on="0"/>
        <pt x="354" y="157" on="0"/>
        <pt x="354" y="141" on="1"/>
        <pt x="354" y="121" on="0"/>
        <pt x="365" y="114" on="0"/>
        <pt x="373" y="114" on="1"/>
        <pt x="385" y="114" on="0"/>
        <pt x="419" y="132" on="0"/>
        <pt x="440" y="154" on="1"/>
        <pt x="449" y="163" on="0"/>
        <pt x="475" y="198" on="0"/>
        <pt x="500" y="237" on="0"/>
        <pt x="517" y="267" on="0"/>
        <pt x="517" y="271" on="1"/>
        <pt x="517" y="277" on="0"/>
        <pt x="526" y="288" on="1"/>
        <pt x="532" y="296" on="0"/>
        <pt x="539" y="305" on="0"/>
        <pt x="549" y="310" on="1"/>
        <pt x="557" y="314" on="0"/>
        <pt x="569" y="309" on="0"/>
        <pt x="576" y="301" on="1"/>
        <pt x="581" y="297" on="0"/>
        <pt x="582" y="281" on="0"/>
        <pt x="582" y="269" on="1"/>
        <pt x="579" y="258" on="0"/>
        <pt x="566" y="223" on="0"/>
        <pt x="551" y="192" on="0"/>
        <pt x="546" y="186" on="1"/>
        <pt x="542" y="182" on="0"/>
        <pt x="522" y="161" on="0"/>
        <pt x="514" y="149" on="1"/>
        <pt x="489" y="119" on="0"/>
        <pt x="467" y="101" on="0"/>
        <pt x="459" y="93" on="1"/>
        <pt x="438" y="72" on="0"/>
        <pt x="392" y="51" on="0"/>
        <pt x="351" y="51" on="0"/>
        <pt x="337" y="61" on="1"/>
        <pt x="306" y="77" on="0"/>
        <pt x="306" y="115" on="1"/>
        <pt x="306" y="123" on="0"/>
        <pt x="301" y="136" on="0"/>
        <pt x="301" y="136" on="1"/>
        <pt x="297" y="136" on="0"/>
        <pt x="284" y="132" on="0"/>
        <pt x="277" y="120" on="1"/>
        <pt x="268" y="103" on="0"/>
        <pt x="229" y="68" on="0"/>
        <pt x="189" y="45" on="0"/>
      </contour>
    </TTGlyph>
</ttFont>
